<?xml version="1.0" encoding="utf-8"?>
<svg height="238" version="1.1" width="1216" xmlns="http://www.w3.org/2000/svg">
<path d="M0 0 C401.28 0 802.56 0 1216 0 C1216 78.54 1216 157.08 1216 238 C814.72 238 413.44 238 0 238 C0 159.46 0 80.92 0 0 Z " fill="#FFFFFF" stroke="#FFFFFF" transform="translate(0,0)"/>
<path d="M0 0 C0.71414063 0.52207031 1.42828125 1.04414062 2.1640625 1.58203125 C15.9703795 12.51991253 25.71696347 30.41421974 31 47 C31.26925293 47.81960205 31.53850586 48.6392041 31.81591797 49.48364258 C34.28845386 57.96477738 34.46084186 66.14352283 34.39111328 74.90161133 C34.37490813 77.32624547 34.3911054 79.74924168 34.41015625 82.17382812 C34.40817553 83.73698279 34.40433542 85.30013645 34.3984375 86.86328125 C34.40451019 87.57696365 34.41058289 88.29064606 34.4168396 89.0259552 C34.34601376 94.13005454 33.19014399 97.4989733 31 102 C30.51867209 103.38807189 30.05666411 104.78319012 29.625 106.1875 C21.46328431 130.75550712 6.19030378 149.13329677 -16.8125 161.25 C-21.64891577 163.52900716 -26.59997593 165.43517772 -31.625 167.25 C-32.3053833 167.4965332 -32.9857666 167.74306641 -33.68676758 167.99707031 C-58.35046797 176.53416445 -85.7155587 173.51841659 -108.92504883 162.29052734 C-133.49081741 149.69284609 -149.72831222 128.8188447 -158.875 103.0625 C-161.25150719 94.86801411 -162.36599479 86.96762667 -162.3125 78.4375 C-162.30686035 77.48149902 -162.3012207 76.52549805 -162.29541016 75.54052734 C-161.83287092 48.08584719 -150.75654757 22.27687419 -131 3 C-92.78446319 -30.56957793 -40.03018978 -29.69493927 0 0 Z " fill="#FFFFFF" stroke="#FFFFFF" transform="translate(854,49)"/>
<path d="M0 0 C0.76166977 0.00222061 1.52333954 0.00444122 2.30809021 0.00672913 C3.16890701 0.00680466 4.02972382 0.00688019 4.91662598 0.00695801 C5.8520372 0.01211929 6.78744843 0.01728058 7.75120544 0.02259827 C8.70422043 0.02401321 9.65723541 0.02542816 10.63912964 0.02688599 C13.69605085 0.032503 16.75289996 0.04505836 19.80979919 0.05775452 C21.87685543 0.06276733 23.94391281 0.06733061 26.01097107 0.07142639 C31.08977507 0.08247795 36.16852489 0.09975397 41.24729919 0.12025452 C41.89068691 1.72872381 42.53407419 3.33719328 43.17745972 4.94566345 C43.75334994 6.38538386 44.32924736 7.82510139 44.90515137 9.26481628 C46.4997543 13.25123051 48.09422749 17.23769656 49.6884613 21.22425842 C53.73142675 31.33402721 53.73142675 31.33402721 57.78245544 41.44056702 C58.13436951 42.31809631 58.48628357 43.19562561 58.84886169 44.0997467 C59.45617979 45.61372159 60.06416529 47.12742907 60.67308044 48.64076233 C62.76587079 53.86039862 64.78428557 59.10728036 66.79881287 64.3575592 C69.71135237 71.93535497 72.67085583 79.49505161 75.62229919 87.05775452 C75.96812042 87.94409576 76.31394165 88.83043701 76.67024231 89.74363708 C81.77244995 102.81763413 86.9029185 115.8802322 92.05979919 128.93275452 C92.67951627 130.50200639 93.29922662 132.07126093 93.91893005 133.64051819 C96.54420308 140.28688477 99.17184389 146.93228849 101.80786133 153.57440186 C102.85808886 156.22241277 103.90570993 158.87144943 104.95271301 161.52073669 C105.66604315 163.32286987 106.38301415 165.12356055 107.1000824 166.92420959 C107.72789612 168.51398621 107.72789612 168.51398621 108.36839294 170.13587952 C108.7337616 171.05659241 109.09913025 171.9773053 109.47557068 172.92591858 C110.24729919 175.12025452 110.24729919 175.12025452 110.24729919 177.12025452 C96.71729919 177.12025452 83.18729919 177.12025452 69.24729919 177.12025452 C62.95975502 162.03014851 62.95975502 162.03014851 60.49729919 155.80775452 C60.19436951 155.06203186 59.89143982 154.3163092 59.57933044 153.54798889 C59.28929138 152.81257874 58.99925232 152.07716858 58.70042419 151.31947327 C58.44422302 150.67840637 58.18802185 150.03733948 57.92405701 149.37684631 C57.02327594 146.3732679 56.69076035 143.22448261 56.24729919 140.12025452 C32.48729919 140.45025452 8.72729919 140.78025452 -15.75270081 141.12025452 C-17.07270081 145.74025452 -18.39270081 150.36025452 -19.75270081 155.12025452 C-22.25270081 161.37025452 -22.25270081 161.37025452 -23.40895081 164.01087952 C-25.2809399 168.34257521 -27.00014874 172.73887436 -28.75270081 177.12025452 C-42.28270081 177.12025452 -55.81270081 177.12025452 -69.75270081 177.12025452 C-68.62746318 169.24359114 -68.62746318 169.24359114 -67.36988831 165.91322327 C-66.9547699 164.79935242 -66.9547699 164.79935242 -66.53126526 163.66297913 C-66.23308899 162.885755 -65.93491272 162.10853088 -65.62770081 161.30775452 C-65.3185675 160.48605774 -65.0094342 159.66436096 -64.69093323 158.81776428 C-63.72062577 156.24835089 -62.73867626 153.68369292 -61.75270081 151.12025452 C-61.43929749 150.30363342 -61.12589417 149.48701233 -60.80299377 148.64564514 C-58.21221982 141.90936057 -55.58538973 135.1884075 -52.89479065 128.49134827 C-50.82579017 123.32111133 -48.80821924 118.13209271 -46.80348206 112.93666077 C-46.03803073 110.95688875 -45.27248299 108.97715401 -44.5068512 106.99745178 C-44.10870209 105.96758148 -43.71055298 104.93771118 -43.30033875 103.87663269 C-36.36903249 85.95333274 -29.38886037 68.05037886 -22.31520081 50.18275452 C-21.95898651 49.2829184 -21.60277222 48.38308228 -21.23576355 47.45597839 C-18.05038827 39.41251937 -14.85979592 31.37121157 -11.64064026 23.34120178 C-10.63706352 20.83101824 -9.64188706 18.31757977 -8.64723206 15.80384827 C-7.95322164 14.05515035 -7.25921122 12.30645243 -6.56520081 10.55775452 C-6.21006409 9.65734436 -5.85492737 8.7569342 -5.48902893 7.82923889 C-5.14936096 6.97523499 -4.80969299 6.12123108 -4.45973206 5.24134827 C-4.00304138 4.08783875 -4.00304138 4.08783875 -3.53712463 2.911026 C-2.33207663 0.16000606 -2.33207663 0.16000606 0 0 Z " fill="#FFFFFF" stroke="#FFFFFF" transform="translate(314.75270080566406,31.879745483398438)"/>
<path d="M0 0 C9.52792126 7.88655668 14.90764021 16.29631435 18.62255859 28.01977539 C19.03505859 29.00977539 19.44755859 29.99977539 19.87255859 31.01977539 C20.62255859 34.01977539 20.62255859 34.01977539 20.62255859 45.01977539 C8.08255859 45.01977539 -4.45744141 45.01977539 -17.37744141 45.01977539 C-18.69744141 40.39977539 -20.01744141 35.77977539 -21.37744141 31.01977539 C-24.82610732 24.7930175 -29.50969503 20.43241159 -36.49072266 18.40649414 C-47.16274905 16.97681807 -61.09574479 15.75863091 -70.37744141 22.01977539 C-72.22869106 23.59066752 -73.75840324 25.19835745 -75.37744141 27.01977539 C-76.03744141 27.01977539 -76.69744141 27.01977539 -77.37744141 27.01977539 C-77.93341836 35.423645 -77.93341836 35.423645 -75.93994141 43.45727539 C-65.03504447 54.36217232 -50.11308165 57.19221892 -35.63183594 60.71679688 C-25.76418827 63.12859734 -16.04132704 65.89110062 -6.37744141 69.01977539 C-5.39300049 69.33446777 -5.39300049 69.33446777 -4.38867188 69.65551758 C9.4163 74.15926727 15.90419739 81.21627783 22.62255859 94.01977539 C27.87580791 104.78981497 27.2697912 120.5687378 23.52099609 131.74633789 C23.22451172 132.49657227 22.92802734 133.24680664 22.62255859 134.01977539 C22.36732422 134.70813477 22.11208984 135.39649414 21.84912109 136.10571289 C19.12690708 142.42424633 14.3834127 147.16338575 9.62255859 152.01977539 C9.01669922 152.66172852 8.41083984 153.30368164 7.78662109 153.96508789 C-6.78136599 168.15138099 -28.38552579 170.19652572 -47.62744141 170.20727539 C-48.76568359 170.21952148 -49.90392578 170.23176758 -51.07666016 170.24438477 C-71.19167229 170.2786328 -90.55748362 165.16618977 -105.25244141 150.70727539 C-117.8206445 137.39870401 -121.37744141 124.22693875 -121.37744141 106.01977539 C-108.50744141 106.01977539 -95.63744141 106.01977539 -82.37744141 106.01977539 C-79.37744141 118.01977539 -79.37744141 118.01977539 -78.18994141 122.83227539 C-76.39815887 127.94767527 -72.9815893 131.26869012 -68.37744141 134.01977539 C-61.67823683 137.02664182 -55.33840584 137.53189354 -48.06494141 137.45727539 C-47.05181885 137.45115234 -46.03869629 137.4450293 -44.99487305 137.4387207 C-37.46637939 137.28148652 -31.18051079 136.45078612 -24.37744141 133.01977539 C-23.40097656 132.53444336 -23.40097656 132.53444336 -22.40478516 132.03930664 C-18.77774527 129.93853886 -17.55496429 127.95195589 -16.37744141 124.01977539 C-16.21444382 121.24881639 -16.14240768 118.59673657 -16.18994141 115.83227539 C-16.19058594 115.1084668 -16.19123047 114.3846582 -16.19189453 113.63891602 C-16.15928192 109.69991115 -16.15928192 109.69991115 -17.37744141 106.01977539 C-20.23632582 104.52712145 -23.30095019 103.4722782 -26.31494141 102.33227539 C-27.24717529 101.9777832 -28.17940918 101.62329102 -29.13989258 101.25805664 C-36.39029792 98.58267439 -43.71299411 96.46011305 -51.18994141 94.51977539 C-101.31740698 81.49370766 -101.31740698 81.49370766 -112.99072266 62.65649414 C-119.10232326 51.03584511 -121.55255993 39.14170915 -118.19775391 26.26586914 C-112.15895342 9.73105827 -99.98999392 -2.31662181 -84.37744141 -9.98022461 C-81.08628349 -11.21792502 -77.78861095 -12.14082687 -74.37744141 -12.98022461 C-72.58306641 -13.53709961 -72.58306641 -13.53709961 -70.75244141 -14.10522461 C-46.85288415 -20.30140612 -19.40580635 -15.20474528 0 0 Z " fill="#FFFFFF" stroke="#FFFFFF" transform="translate(644.37744140625,41.980224609375)"/>
<path d="M0 0 C13.2 0 26.4 0 40 0 C40.81629251 15.60559202 41.27873253 31.18907387 41.5625 46.8125 C41.60584811 49.07747917 41.64946653 51.34245319 41.69335938 53.60742188 C41.79867499 59.07155934 41.90070821 64.53574992 42 70 C42.47821198 69.4524556 42.95642395 68.90491119 43.4491272 68.34077454 C44.07773651 67.62157333 44.70634583 66.90237213 45.35400391 66.16137695 C45.97659088 65.44883255 46.59917786 64.73628815 47.2406311 64.00215149 C49.25865589 61.70565112 51.31226087 59.44386789 53.375 57.1875 C56.46636801 53.76770672 59.42459032 50.28041476 62.3125 46.6875 C66.20126389 41.87574852 70.32614714 37.35564456 74.55126953 32.84326172 C78.51257569 28.58880626 82.20217098 24.16108884 85.84375 19.62890625 C88.70373149 16.14200852 91.71700476 12.8100513 94.76171875 9.484375 C96.92666755 7.20519138 96.92666755 7.20519138 98.15672302 5.25016785 C100.21417488 2.34160144 101.78778161 0.32280725 105.31321716 -0.61599731 C108.11637266 -0.80933888 110.84051138 -0.7876184 113.6484375 -0.68359375 C114.66096588 -0.67368912 115.67349426 -0.66378448 116.71670532 -0.65357971 C119.93763607 -0.61452221 123.15510679 -0.52671437 126.375 -0.4375 C128.56375272 -0.40237507 130.75255908 -0.37043814 132.94140625 -0.34179688 C138.29544312 -0.26478998 143.64747438 -0.14779026 149 0 C148.06639955 1.25617211 147.13118246 2.5111428 146.1953125 3.765625 C145.67469238 4.46461914 145.15407227 5.16361328 144.61767578 5.88378906 C139.72332649 12.28647842 134.11573181 17.92758507 128.39941406 23.58374023 C125.11688247 26.84423109 122.01244095 30.18711627 119.0078125 33.70703125 C114.46211289 38.89832633 109.67976715 43.88094795 104.95849609 48.91210938 C102.92478123 51.08018835 100.8937878 53.25079125 98.86328125 55.421875 C97.51309136 56.86464934 96.16283274 58.30735936 94.8125 59.75 C94.17699219 60.42933594 93.54148437 61.10867187 92.88671875 61.80859375 C92.29117188 62.44410156 91.695625 63.07960937 91.08203125 63.734375 C90.55843018 64.29350586 90.0348291 64.85263672 89.49536133 65.42871094 C88.48778914 66.48744312 87.44597672 67.51448586 86.375 68.5090332 C83.86643383 71.22917056 83.92324866 73.37075812 84 77 C85.70057854 80.33891268 87.97182161 83.14907725 90.3125 86.0625 C91.62197903 87.76103661 92.93056843 89.46025945 94.23828125 91.16015625 C94.88490723 91.98789551 95.5315332 92.81563477 96.19775391 93.66845703 C98.55522748 96.71829077 100.78754024 99.84431638 103 103 C106.88796155 108.49021905 110.8719449 113.90577623 114.875 119.3125 C119.32430131 125.32481018 123.70866529 131.37394336 128 137.5 C132.3346294 143.68701644 136.76084747 149.79915393 141.25 155.875 C142.13582764 157.07467407 142.13582764 157.07467407 143.03955078 158.29858398 C145.57466624 161.72859305 148.11485632 165.15467158 150.6640625 168.57421875 C151.39367187 169.56035156 152.12328125 170.54648438 152.875 171.5625 C153.49117187 172.38878906 154.10734375 173.21507812 154.7421875 174.06640625 C156 176 156 176 156 178 C145.66070168 178.81664416 135.30667525 179.20064544 124.9375 179.375 C123.78467529 179.41302734 122.63185059 179.45105469 121.4440918 179.49023438 C114.30110134 179.56094161 109.42961475 178.84191263 104 174 C101.93359375 171.74609375 101.93359375 171.74609375 100.4375 169.4375 C99.86257812 168.56351563 99.28765625 167.68953125 98.6953125 166.7890625 C96.99871265 163.99788211 95.40390758 161.16473292 93.8125 158.3125 C90.19275609 151.98602793 85.78311122 146.54363941 81.1796875 140.92578125 C77.98196313 137.0142966 74.94770416 132.99419941 71.9375 128.9375 C68.19328878 123.90153287 64.39747793 118.91836298 60.5 114 C56.38620953 108.80335566 52.35630077 103.54888776 48.375 98.25 C47.85357422 97.55777344 47.33214844 96.86554688 46.79492188 96.15234375 C43.12392893 91.24785786 43.12392893 91.24785786 42 89 C41.67 118.37 41.34 147.74 41 178 C27.47 178 13.94 178 0 178 C0 119.26 0 60.52 0 0 Z " fill="#FFFFFF" stroke="#FFFFFF" transform="translate(81,32)"/>
<path d="M0 0 C40.26 0 80.52 0 122 0 C122 9.9 122 19.8 122 30 C94.28 30 66.56 30 38 30 C38 44.52 38 59.04 38 74 C62.09 74 86.18 74 111 74 C111 83.57 111 93.14 111 103 C86.91 103 62.82 103 38 103 C38 127.09 38 151.18 38 176 C25.46 176 12.92 176 0 176 C0 117.92 0 59.84 0 0 Z " fill="#FFFFFF" stroke="#FFFFFF" transform="translate(915,32)"/>
<path d="M0 0 C0.71414063 0.52207031 1.42828125 1.04414062 2.1640625 1.58203125 C15.97113341 12.5205098 25.71565825 30.4140105 31 47 C31.26925293 47.81815186 31.53850586 48.63630371 31.81591797 49.47924805 C34.30121202 57.99384488 34.46076714 66.21812183 34.39111328 75.01147461 C34.37486336 77.45807248 34.39112833 79.90305786 34.41015625 82.34960938 C34.40817638 83.91927445 34.40433803 85.48893852 34.3984375 87.05859375 C34.40451019 87.78259872 34.41058289 88.5066037 34.4168396 89.25254822 C34.35554565 93.67070583 33.76864408 96.51962324 31 100 C26.04001649 103.67158467 19.71553167 105.11736447 13.8125 106.5625 C12.56738647 106.87610474 12.56738647 106.87610474 11.29711914 107.19604492 C9.63505148 107.61232558 7.97189929 108.02430346 6.30761719 108.43164062 C4.27626916 108.93195571 2.2508701 109.45629476 0.2265625 109.984375 C-6.30386677 111.6286161 -12.26638643 112.41040083 -19 112 C-18.30007867 106.45446945 -15.56620012 101.99853153 -12.97070312 97.14648438 C-8.63939541 88.8109106 -7.65534113 81.47679852 -7.6875 72.125 C-7.67138672 71.19558594 -7.65527344 70.26617187 -7.63867188 69.30859375 C-7.62776647 53.67024447 -14.56854113 41.84839915 -25.1328125 30.76171875 C-30.51006847 25.64465258 -36.04128157 22.5234913 -43 20 C-43.8559375 19.6803125 -44.711875 19.360625 -45.59375 19.03125 C-58.53951162 15.01359984 -74.91878812 14.75185455 -87.31640625 20.5234375 C-88.20199219 21.01070312 -89.08757812 21.49796875 -90 22 C-90.81339844 22.44601563 -91.62679687 22.89203125 -92.46484375 23.3515625 C-104.03603492 30.4327359 -113.79840925 41.78820801 -117.140625 55.12890625 C-117.7606381 57.72303367 -118.25701137 60.28666186 -118.72265625 62.91796875 C-120 66 -120 66 -123.046875 67.77734375 C-124.35194523 68.22371315 -125.67153757 68.6289993 -127 69 C-127.71212646 69.20101318 -128.42425293 69.40202637 -129.15795898 69.60913086 C-131.49392704 70.23116405 -133.83800881 70.80632279 -136.1875 71.375 C-143.03089511 73.08916181 -149.33431577 75.12024521 -155.75 78.08203125 C-158 79 -158 79 -161 79 C-161.98508567 52.0469614 -153.8502409 27.92764686 -135.6875 7.6875 C-99.18203626 -31.392108 -41.1221215 -30.50494908 0 0 Z " fill="#FFFFFF" stroke="#FFFFFF" transform="translate(854,49)"/>
<path d="M0 0 C49.17 0 98.34 0 149 0 C149 9.9 149 19.8 149 30 C130.52 30 112.04 30 93 30 C93 78.84 93 127.68 93 178 C80.13 178 67.26 178 54 178 C54 129.16 54 80.32 54 30 C36.18 30 18.36 30 0 30 C0 20.1 0 10.2 0 0 Z " fill="#FFFFFF" stroke="#FFFFFF" transform="translate(1056,32)"/>
<path d="M0 0 C13.2 0 26.4 0 40 0 C40 59.4 40 118.8 40 180 C26.8 180 13.6 180 0 180 C0 120.6 0 61.2 0 0 Z " fill="#FFFFFF" stroke="#FFFFFF" transform="translate(455,30)"/>
<path d="M0 0 C11.98107351 8.86705 21.39189822 21.15158695 24 36 C24.21269911 39.60230071 24.18510583 43.20448331 24.1875 46.8125 C24.19974609 47.77220703 24.21199219 48.73191406 24.22460938 49.72070312 C24.24373504 59.06040447 22.35919087 65.9488909 18.0625 74.1875 C17.71509766 74.87263672 17.36769531 75.55777344 17.00976562 76.26367188 C16.02670633 78.18720975 15.01719658 80.09435599 14 82 C13.24589844 83.46179688 13.24589844 83.46179688 12.4765625 84.953125 C11.98929688 85.62859375 11.50203125 86.3040625 11 87 C-2.62617543 89.07856913 -18.73189706 82.31898734 -30 75 C-35.60762953 70.82941856 -40.37833605 65.74131191 -45.13671875 60.65234375 C-56.55630578 48.57759119 -67.23239293 43.24715345 -83.98046875 42.28125 C-87 42 -87 42 -88 41 C-88.91958065 30.19492735 -84.12033427 20.63981613 -78 12 C-71.92431435 4.86362804 -65.43315134 -0.87624203 -57 -5 C-56.24203125 -5.41121094 -55.4840625 -5.82242188 -54.703125 -6.24609375 C-37.93797941 -13.96126425 -15.06817134 -9.32304767 0 0 Z " fill="#FFFFFF" stroke="#FFFFFF" transform="translate(823,74)"/>
<path d="M0 0 C12.54 0 25.08 0 38 0 C38 58.08 38 116.16 38 176 C25.46 176 12.92 176 0 176 C0 117.92 0 59.84 0 0 Z " fill="#FFFFFF" stroke="#FFFFFF" transform="translate(10,32)"/>
<path d="M0 0 C0.66 0.66 1.32 1.32 2 2 C4.09916026 2.17858965 6.20622688 2.26798477 8.3125 2.3125 C24.81775935 3.29435133 34.84353772 11.50574219 45.8125 22.9375 C60.66223214 38.04151356 77.71901972 45.9537519 99 48 C94.86499391 56.78688794 85.54213681 60.58314527 77 64 C75.89978516 64.48339844 75.89978516 64.48339844 74.77734375 64.9765625 C63.73746951 69.14328752 45.31603775 69.12066028 34.41015625 64.46875 C19.69395649 55.81418211 5.1275929 43.40137653 0.39697266 26.22509766 C-0.46550413 21.39077205 -0.20049345 16.45505649 -0.125 11.5625 C-0.11597656 10.44939453 -0.10695313 9.33628906 -0.09765625 8.18945312 C-0.0742224 5.45940977 -0.041414 2.7298199 0 0 Z " fill="#FFFFFF" stroke="#FFFFFF" transform="translate(734,113)"/>
<path d="M0 0 C2.87276556 2.69343635 3.92737767 4.95433068 5.2421875 8.6953125 C5.66266357 9.8709375 6.08313965 11.0465625 6.51635742 12.2578125 C6.73746185 12.88719727 6.95856628 13.51658203 7.18637085 14.16503906 C8.3706612 17.53573985 9.5800468 20.89732466 10.79296875 24.2578125 C11.04724136 24.9630304 11.30151398 25.66824829 11.56349182 26.39483643 C13.48271246 31.67591087 15.51884183 36.90334795 17.61328125 42.1171875 C17.91202148 42.86267853 18.21076172 43.60816956 18.51855469 44.37625122 C19.69463653 47.30554397 20.87298565 50.23366038 22.07147217 53.15386963 C22.90396099 55.18252056 23.72421818 57.215774 24.54296875 59.25 C25.2548938 60.99023438 25.2548938 60.99023438 25.98120117 62.765625 C27 66 27 66 27 72 C10.17 72 -6.66 72 -24 72 C-21.75000451 59.62502481 -21.75000451 59.62502481 -20.18408203 55.3359375 C-19.83677032 54.37123535 -19.48945862 53.4065332 -19.13162231 52.41259766 C-18.76076508 51.41019043 -18.38990784 50.4077832 -18.0078125 49.375 C-17.62060028 48.30685059 -17.23338806 47.23870117 -16.83444214 46.13818359 C-15.60615568 42.75573866 -14.36583614 39.37785856 -13.125 36 C-12.29997575 33.7346682 -11.47575018 31.46904535 -10.65234375 29.203125 C-8.78969302 24.08227369 -6.91816117 18.96474564 -5.0425415 13.84863281 C-3.35411174 9.23517962 -1.67669244 4.61772963 0 0 Z " fill="#FFFFFF" stroke="#FFFFFF" transform="translate(333,73)"/>
<path d="M0 0 C13.2 0 26.4 0 40 0 C40 59.4 40 118.8 40 180 C26.8 180 13.6 180 0 180 C0 120.6 0 61.2 0 0 Z M2 3 C2 60.42 2 117.84 2 177 C13.55 177 25.1 177 37 177 C37 119.58 37 62.16 37 3 C25.45 3 13.9 3 2 3 Z " fill="#FFFFFF" stroke="#FFFFFF" transform="translate(455,30)"/>
<path d="M0 0 C0.33 0 0.66 0 1 0 C1 9.57 1 19.14 1 29 C4.86332031 28.98839844 8.72664063 28.97679688 12.70703125 28.96484375 C16.44018471 28.95704962 20.17333727 28.95097488 23.90649414 28.94506836 C26.50513107 28.94003319 29.10376515 28.9332047 31.70239258 28.92456055 C35.43311259 28.91245938 39.16379522 28.90676359 42.89453125 28.90234375 C44.64308159 28.89460182 44.64308159 28.89460182 46.42695618 28.88670349 C47.50785019 28.88662796 48.5887442 28.88655243 49.70239258 28.88647461 C50.65503494 28.884254 51.60767731 28.88203339 52.58918762 28.87974548 C55 29 55 29 58 30 C58 77.85 58 125.7 58 175 C64.93 175 71.86 175 79 175 C83.29 175.33 87.58 175.66 92 176 C92 127.82 92 79.64 92 30 C92.33 30 92.66 30 93 30 C93 78.84 93 127.68 93 178 C80.13 178 67.26 178 54 178 C54 129.16 54 80.32 54 30 C36.18 30 18.36 30 0 30 C0 20.1 0 10.2 0 0 Z " fill="#FFFFFF" stroke="#FFFFFF" transform="translate(1056,32)"/>
<path d="M0 0 C0.99 0.495 0.99 0.495 2 1 C2.78377773 22.61377385 3.14370652 44.19111671 3.10139394 65.81800199 C3.09497126 69.68155801 3.09454216 73.54511561 3.09336853 77.40867615 C3.09030918 84.66431639 3.08217185 91.91994084 3.07201904 99.17557424 C3.06068608 107.46154845 3.05530501 115.74752357 3.05032361 124.03350365 C3.03998202 141.02234477 3.02249196 158.0111707 3 175 C3.65255264 174.99738159 4.30510529 174.99476318 4.97743225 174.99206543 C7.97583774 174.98157819 10.97423934 174.97513762 13.97265625 174.96875 C14.99895142 174.96456055 16.02524658 174.96037109 17.0826416 174.95605469 C24.78322203 174.94377551 32.32613181 175.3102141 40 176 C40 167.09 40 158.18 40 149 C40.33 149 40.66 149 41 149 C41 158.57 41 168.14 41 178 C27.47 178 13.94 178 0 178 C0 119.26 0 60.52 0 0 Z " fill="#FFFFFF" stroke="#FFFFFF" transform="translate(81,32)"/>
<path d="M0 0 C4.81035973 4.3730543 8.59926143 9.46277438 12 15 C12 15.66 12 16.32 12 17 C1.57015139 17.82379622 -8.85094062 18.15497749 -19.3125 18.25 C-20.49884033 18.27126953 -21.68518066 18.29253906 -22.9074707 18.31445312 C-24.02726318 18.31896484 -25.14705566 18.32347656 -26.30078125 18.328125 C-27.80378784 18.34214355 -27.80378784 18.34214355 -29.3371582 18.35644531 C-32.38179313 17.94889356 -33.74350351 17.03094738 -36 15 C-35.34 15 -34.68 15 -34 15 C-34 14.34 -34 13.68 -34 13 C-20.8 13 -7.6 13 6 13 C3.69 9.7 1.38 6.4 -1 3 C-0.67 2.01 -0.34 1.02 0 0 Z " fill="#FFFFFF" stroke="#FFFFFF" transform="translate(225,193)"/>
<path d="M0 0 C-0.32412372 3.02515469 -0.89828652 3.91241339 -3.25 5.9375 C-4.1575 6.618125 -5.065 7.29875 -6 8 C-6.804375 8.804375 -7.60875 9.60875 -8.4375 10.4375 C-11 13 -11 13 -14 15.375 C-17.3859415 18.33769881 -19.51327767 21.2699165 -22 25 C-22.703125 23.2890625 -22.703125 23.2890625 -23 21 C-19.52977545 14.89497533 -7.73754573 0 0 0 Z " fill="#FFFFFF" stroke="#FFFFFF" transform="translate(734,45)"/>
<path d="M0 0 C0.99 0.33 1.98 0.66 3 1 C3.66 3.31 4.32 5.62 5 8 C-8.53 8 -22.06 8 -36 8 C-36 7.34 -36 6.68 -36 6 C-23.79 6 -11.58 6 1 6 C0.505 3.03 0.505 3.03 0 0 Z " fill="#FFFFFF" stroke="#FFFFFF" transform="translate(420,201)"/>
<path d="M0 0 C0.6875 1.5625 0.6875 1.5625 1 4 C0.0421975 6.35096976 -0.96157435 8.68351201 -2 11 C-2.39764263 12.98821313 -2.75455166 14.98732362 -3 17 C-1.35 17 0.3 17 2 17 C2 17.66 2 18.32 2 19 C-0.52475462 20.26237731 -2.31200466 20.09856404 -5.125 20.0625 C-6.03507813 20.05347656 -6.94515625 20.04445312 -7.8828125 20.03515625 C-8.93082031 20.01775391 -8.93082031 20.01775391 -10 20 C-9.42877205 15.32307114 -7.3633273 11.7329502 -5 7.75 C-4.44699219 6.79480469 -4.44699219 6.79480469 -3.8828125 5.8203125 C-1.17426658 1.17426658 -1.17426658 1.17426658 0 0 Z " fill="#FFFFFF" stroke="#FFFFFF" transform="translate(845,141)"/>
<path d="M0 0 C0.33 0 0.66 0 1 0 C1 6.93 1 13.86 1 21 C0.01 21.33 -0.98 21.66 -2 22 C-2.05401695 19.08308475 -2.09368066 16.16717276 -2.125 13.25 C-2.14175781 12.425 -2.15851562 11.6 -2.17578125 10.75 C-2.18222656 9.95078125 -2.18867187 9.1515625 -2.1953125 8.328125 C-2.20578613 7.5949707 -2.21625977 6.86181641 -2.22705078 6.10644531 C-1.96777544 3.70103924 -1.19225925 2.08748506 0 0 Z " fill="#FFFFFF" stroke="#FFFFFF" transform="translate(887,120)"/>
<path d="M0 0 C2.475 0.99 2.475 0.99 5 2 C3.75023244 5.65316671 3.32901247 6.78065836 0 9 C0 6.03 0 3.06 0 0 Z " fill="#FFFFFF" stroke="#FFFFFF" transform="translate(692,129)"/>
</svg>