<?xml version="1.0" encoding="UTF-8"?>
<svg version="1.1" xmlns="http://www.w3.org/2000/svg" width="743" height="757">
<path d="M0 0 C245.19 0 490.38 0 743 0 C743 249.81 743 499.62 743 757 C497.81 757 252.62 757 0 757 C0 507.19 0 257.38 0 0 Z " fill="#13B327" transform="translate(0,0)"/>
<path d="M0 0 C245.19 0 490.38 0 743 0 C743 249.81 743 499.62 743 757 C497.81 757 252.62 757 0 757 C0 507.19 0 257.38 0 0 Z M304 71 C302.54278265 71.3176633 301.08450511 71.63051922 299.625 71.9375 C293.7099505 73.24956553 287.8665216 74.83704481 282.02685547 76.44677734 C280.05394558 76.98527576 278.07632973 77.50268766 276.09765625 78.01953125 C246.9570001 85.85918565 218.97505017 100.2728921 194 117 C193.23196045 117.50877686 192.4639209 118.01755371 191.67260742 118.54174805 C183.31921803 124.08090786 175.22771474 129.76267838 167.76953125 136.4765625 C165.33979742 138.56838633 162.6826974 140.25041474 160 142 C156.30051203 144.86899067 153.31623932 147.7582578 150.3984375 151.41015625 C148.80429011 153.222497 147.08375636 154.74329742 145.25 156.3125 C136.90177445 163.47035943 129.81663644 171.39009809 123 180 C122.07866477 181.14236263 121.15676777 182.28427236 120.234375 183.42578125 C115.42479047 189.41429851 110.88660771 195.4185611 106.8671875 201.9765625 C105.4255627 204.31090893 103.95473376 206.60839516 102.4453125 208.8984375 C96.19741399 218.38326517 90.38625967 228.00134327 85 238 C84.55624023 238.82048828 84.11248047 239.64097656 83.65527344 240.48632812 C69.51668002 266.73115322 58.7380381 293.80589391 52.46850586 323.02563477 C51.82339479 325.74424511 50.89306848 328.35414565 50 331 C49.60899501 332.88857967 49.25327401 334.78489525 48.9375 336.6875 C48.4503064 339.59858241 47.93544642 342.19366075 47 345 C46.76022267 348.7121083 46.6183778 352.4235714 46.4765625 356.140625 C46.20107847 360.16477305 45.37518946 363.95516809 44.49511719 367.88867188 C42.90045248 375.49545803 42.56361461 382.86539844 42.6015625 390.640625 C42.59953186 391.98289141 42.59661231 393.32515672 42.59286499 394.66741943 C42.58849405 397.45058931 42.59470438 400.23346629 42.60888672 403.01660156 C42.62604331 406.55208555 42.61606379 410.08688914 42.59816933 413.62234879 C42.58724517 416.38333112 42.59081581 419.14415625 42.5985527 421.90514374 C42.60147358 423.83196975 42.5925036 425.75880234 42.5831604 427.68560791 C42.63618544 434.36969979 43.24819434 440.19765139 45.31159973 446.57174683 C46.05110289 449.18025958 46.30664451 451.60295998 46.47265625 454.3046875 C46.95791879 461.11772512 48.70410588 467.53739628 50.4375 474.125 C51.06221715 476.54400784 51.68593759 478.96327334 52.30859375 481.3828125 C52.60403076 482.52105469 52.89946777 483.65929687 53.20385742 484.83203125 C53.8867974 487.54955017 54.50282299 490.26604501 55.078125 493.0078125 C55.821207 496.43967286 56.88413997 499.53037412 58.3125 502.75 C60.08608479 506.84368117 61.75407697 510.94463552 63.3125 515.125 C68.66540214 529.12618467 75.03751786 542.73099411 82 556 C82.3304834 556.6305127 82.6609668 557.26102539 83.00146484 557.91064453 C92.25237845 575.36173965 103.4095687 591.79380211 116 607 C116.42812988 607.52432617 116.85625977 608.04865234 117.29736328 608.58886719 C125.09516812 618.12895287 133.46750055 627.11628386 142 636 C142.82298584 636.85803223 142.82298584 636.85803223 143.66259766 637.73339844 C150.37145774 644.68965683 157.36188432 651.0613892 165 657 C165.61472168 657.48581543 166.22944336 657.97163086 166.86279297 658.47216797 C232.5778122 710.38271927 316.62418782 735.67285437 400 733 C400.96317139 732.97075439 401.92634277 732.94150879 402.91870117 732.91137695 C413.60666 732.34150192 423.98891783 730.00113066 434.4375 727.8125 C435.41899017 727.60891876 436.40048035 727.40533752 437.41171265 727.19558716 C451.41096658 724.28689441 465.36539536 721.35258533 479 717 C479.87076172 716.72397949 480.74152344 716.44795898 481.63867188 716.16357422 C519.9794975 703.81641338 555.17215503 686.3426525 588 663 C588.57395508 662.59861816 589.14791016 662.19723633 589.73925781 661.78369141 C598.94331708 655.33402789 606.97729972 647.82896604 615 640 C615.52879761 639.48451599 616.05759521 638.96903198 616.60241699 638.43792725 C620.3720118 634.75968371 624.12640176 631.06650239 627.86868286 627.36047363 C629.14604381 626.0968098 630.42566344 624.83542431 631.70773315 623.57653809 C643.11153036 612.36204111 652.62889443 600.67922041 661 587 C662.01186829 585.3781866 663.02500939 583.75716698 664.0390625 582.13671875 C665.17221838 580.32052669 666.30502708 578.50411799 667.4375 576.6875 C668.2260437 575.42583008 668.2260437 575.42583008 669.03051758 574.13867188 C670.70620362 571.43699787 672.35743222 568.72193653 674 566 C674.64428955 564.94111572 675.2885791 563.88223145 675.95239258 562.79125977 C681.14531893 554.02074844 685.10207406 545.04248907 688.8125 535.5625 C689.37597525 534.14349151 689.94042581 532.72486992 690.50585938 531.30664062 C691.54105558 528.71006749 692.56952723 526.11125887 693.59301758 523.51000977 C694.56719617 521.07971902 695.56483194 518.6786047 696.609375 516.27954102 C698.12235459 512.71144853 699.17305824 509.10463122 700.1875 505.375 C702.14776705 498.44929194 704.49092283 491.72180539 707.0625 485 C707.39080811 484.14067871 707.71911621 483.28135742 708.05737305 482.39599609 C709.6232027 478.35885328 711.27130042 474.4474658 713.18359375 470.5625 C715.47344488 465.43661011 715.786097 460.5605904 716 455 C716.0530127 453.88351074 716.10602539 452.76702148 716.16064453 451.61669922 C716.32666518 447.72432165 716.45334648 443.8317905 716.5625 439.9375 C716.59327133 438.85776917 716.59327133 438.85776917 716.62466431 437.75622559 C717.32430245 412.4592355 717.76908235 387.07944979 716.125 361.8125 C716.04660889 360.60239258 715.96821777 359.39228516 715.88745117 358.14550781 C715.45914768 352.46709874 714.73581829 347.41409992 713 342 C712.67237786 340.02646665 712.38051571 338.04665772 712.125 336.0625 C710.96466465 328.22577355 709.08629352 320.63094745 707 313 C706.70681885 311.91283691 706.70681885 311.91283691 706.40771484 310.80371094 C700.90940689 290.6883762 693.99886416 270.06340636 683.62109375 251.91796875 C682.18765724 249.33778304 681.11845518 246.89477134 680.125 244.125 C670.80934224 219.76097201 652.05342349 195.58729448 634.40625 176.66015625 C632.11433003 174.12639407 630.02945644 171.51192841 627.9375 168.8125 C618.87670445 157.59130124 607.55510331 147.58323241 596 139 C595.14535156 138.36191406 594.29070313 137.72382813 593.41015625 137.06640625 C590.62555084 135.0169047 587.81606173 133.00601412 585 131 C584.06027344 130.31292969 583.12054687 129.62585938 582.15234375 128.91796875 C572.22987985 121.81220428 561.67203303 115.89498926 551 110 C550.23574707 109.57654297 549.47149414 109.15308594 548.68408203 108.71679688 C538.05234447 102.85922142 527.17242435 97.74016759 516 93 C515.113125 92.62359375 514.22625 92.2471875 513.3125 91.859375 C510.88834064 90.86614304 508.45107202 89.92512607 506 89 C505.32356445 88.7436377 504.64712891 88.48727539 503.95019531 88.22314453 C486.02806699 81.45231097 467.9663242 76.04835415 449.24609375 71.94921875 C445.9007846 71.21590005 442.61194495 70.35749122 439.3125 69.4375 C433.49802197 67.9483351 427.82006835 67.48834754 421.8359375 67.2109375 C419 67 419 67 417 66 C408.65304395 64.5999412 400.10218169 64.81935678 391.66796875 64.796875 C390.94210382 64.79404762 390.2162389 64.79122025 389.46837807 64.78830719 C385.61864498 64.77339685 381.7689485 64.76411882 377.91918945 64.75976562 C374.78430409 64.75540152 371.64969713 64.74157904 368.51489258 64.71875 C346.44463029 64.56118209 325.50179509 65.5778082 304 71 Z " fill="#FDFEFD" transform="translate(0,0)"/>
<path d="M0 0 C3.14415081 0.01916865 6.28824309 0.02315896 9.43244457 0.02671432 C13.22936239 0.03189109 17.02622982 0.04636764 20.82312012 0.06115723 C21.88147096 0.06397831 21.88147096 0.06397831 22.96120262 0.06685638 C43.90491221 0.13916265 43.90491221 0.13916265 48.15515137 2.26428223 C50.27796064 2.42217713 52.40376168 2.54070787 54.53015137 2.63928223 C60.30251191 3.011502 65.57913905 3.89637222 71.14343262 5.44787598 C74.28004971 6.29813923 77.42703242 7.00815748 80.60070801 7.70397949 C94.7845583 10.815127 108.63304908 14.02728875 122.11071777 19.47570801 C125.22793514 20.67807391 128.3982431 21.71214937 131.56677246 22.7701416 C140.8899289 25.90072422 149.48906797 29.69696636 158.1854248 34.26135254 C160.87137994 35.62896579 163.60903555 36.86871133 166.35314941 38.11437988 C193.08382084 50.28067786 217.91464862 67.0999063 239.56140137 86.89709473 C241.37860547 88.55556714 243.21358232 90.19467718 245.06140137 91.81896973 C251.96992219 97.92789841 257.93550311 104.45785427 263.76208496 111.59484863 C265.14565374 113.25290038 266.57039856 114.86159798 268.01843262 116.46350098 C276.87300998 126.31864558 284.01203233 137.13043513 291.15515137 148.26428223 C291.70799805 149.11844727 292.26084473 149.9726123 292.83044434 150.85266113 C306.86501519 172.54855527 306.86501519 172.54855527 311.59265137 183.63537598 C312.66657746 186.12956934 313.75880946 188.50228765 314.99499512 190.90881348 C320.39025454 201.53713717 324.57518414 212.47749834 328.53015137 223.70178223 C328.78867889 224.43071686 329.04720642 225.15965149 329.31356812 225.91067505 C332.38879995 234.61471768 335.03985171 243.26995227 337.15515137 252.26428223 C337.51209799 253.58703933 337.8768322 254.90774498 338.25280762 256.22521973 C340.3471329 263.63590918 341.82803352 270.80114921 342.76062012 278.43615723 C343.07747195 281.33477772 343.07747195 281.33477772 344.15515137 284.26428223 C347.82605053 314.26189291 346.5764443 345.06772067 345.71765137 375.20178223 C345.69818451 375.89630493 345.67871765 376.59082764 345.65866089 377.30639648 C344.95156041 401.54755853 344.95156041 401.54755853 341.15515137 408.26428223 C340.16515137 408.59428223 339.17515137 408.92428223 338.15515137 409.26428223 C337.1241319 411.58407603 336.1257862 413.91858138 335.15515137 416.26428223 C332.89513635 419.04795926 330.41658188 420.22662773 327.15515137 421.63928223 C325.68755371 422.28316895 325.68755371 422.28316895 324.19030762 422.94006348 C323.18870605 423.37705566 322.18710449 423.81404785 321.15515137 424.26428223 C319.29986557 425.11601537 317.44566835 425.97012431 315.59265137 426.82678223 C302.85827373 432.58243314 289.95124247 436.37527902 276.38562012 439.69616699 C271.40111438 440.92508501 266.46659372 442.29362865 261.53015137 443.70178223 C253.00659261 446.11526302 244.40615497 448.08398175 235.76062012 450.00646973 C230.21094103 451.24187991 224.68286539 452.55960362 219.15515137 453.88928223 C216.58124655 454.50112944 214.00694463 455.11127445 211.43249512 455.7208252 C209.44191942 456.19584894 207.4544956 456.68404154 205.46765137 457.17443848 C190.6803809 460.64456445 175.31567886 461.72292003 160.15515137 461.26428223 C160.78237548 456.93648641 162.3313379 453.57733515 164.3104248 449.69250488 C164.63416077 449.05262634 164.95789673 448.4127478 165.29144287 447.753479 C165.99325431 446.36792202 166.69777926 444.98373685 167.40471649 443.60078812 C168.52987486 441.39830018 169.64662063 439.19173014 170.76116943 436.9838562 C173.93112247 430.70786924 177.11535275 424.4391748 180.30651855 418.1739502 C182.26161411 414.33406871 184.2064127 410.48910497 186.14551544 406.64112473 C186.87986511 405.18899032 187.61804005 403.73878274 188.36040497 402.29072952 C194.64347907 390.03329893 200.02529702 377.59984839 201.90515137 363.82678223 C202.0172998 363.12230957 202.12944824 362.41783691 202.24499512 361.6920166 C204.2288348 348.33027287 204.3417693 334.75435027 204.3404541 321.27355957 C204.34264952 318.76639015 204.36092697 316.25965632 204.37976074 313.75256348 C204.42916481 299.58662101 203.48850083 285.85524192 199.15515137 272.26428223 C198.8341748 271.20273926 198.8341748 271.20273926 198.50671387 270.11975098 C192.50524359 251.09155991 183.80628789 232.47359238 172.15515137 216.26428223 C171.38727666 215.13951271 170.62175846 214.01313176 169.85827637 212.88537598 C164.72290446 205.38707116 159.10401607 198.66582443 152.81921387 192.10412598 C150.15515137 189.26428223 150.15515137 189.26428223 148.02624512 186.59631348 C145.14044505 182.9996065 141.67940884 180.21800223 138.15515137 177.26428223 C137.3391748 176.57205566 136.52319824 175.8798291 135.68249512 175.16662598 C132.87339035 172.82087869 130.02741871 170.53225436 127.15515137 168.26428223 C126.16257324 167.48053223 125.16999512 166.69678223 124.14733887 165.88928223 C105.30376729 151.49145691 83.71337453 143.07615254 61.06018066 136.79284668 C59.23884707 136.28750422 57.42054623 135.77126911 55.60241699 135.2545166 C13.19321847 123.59621103 -34.16534538 128.93116202 -73.84484863 147.26428223 C-74.87279541 147.7380127 -74.87279541 147.7380127 -75.92150879 148.22131348 C-85.09878724 152.50788597 -93.6071031 157.33599226 -101.84484863 163.26428223 C-102.45828125 163.69724609 -103.07171387 164.13020996 -103.70373535 164.57629395 C-118.12757824 174.79066432 -129.93070896 186.31474174 -140.49768066 200.46838379 C-141.85437214 202.27697794 -143.236207 204.06401106 -144.62219238 205.85021973 C-151.7239446 215.1195351 -157.50660349 224.88853815 -162.84484863 235.26428223 C-163.18000488 235.91396973 -163.51516113 236.56365723 -163.86047363 237.23303223 C-170.7936886 250.87214363 -175.76702165 265.08460178 -177.84484863 280.26428223 C-178.29267262 283.08265275 -178.78226453 285.89227088 -179.28234863 288.70178223 C-179.39280518 289.37676758 -179.50326172 290.05175293 -179.61706543 290.74719238 C-180.84435843 297.60938346 -183.22965284 301.22658966 -188.84484863 305.26428223 C-191.63415527 306.39587402 -191.63415527 306.39587402 -194.69250488 307.27600098 C-195.83864258 307.60648437 -196.98478027 307.93696777 -198.16564941 308.27746582 C-203.83906302 309.79916043 -209.53628143 311.21184326 -215.24691772 312.58547974 C-228.98527185 315.90157736 -242.45213522 319.73294569 -255.84484863 324.26428223 C-257.37461605 324.7726382 -258.90456258 325.28045554 -260.43469238 325.78771973 C-264.62452012 327.18524328 -268.8023991 328.61388392 -272.96984863 330.07678223 C-274.05954956 330.45927124 -274.05954956 330.45927124 -275.17126465 330.8494873 C-280.09419486 332.59633351 -284.94744992 334.47550497 -289.78234863 336.45178223 C-294.74623273 338.47215163 -299.66990421 340.23085407 -304.82922363 341.67443848 C-307.01889782 342.27626141 -307.01889782 342.27626141 -309.71984863 343.45178223 C-311.84484863 344.26428223 -311.84484863 344.26428223 -315.84484863 344.26428223 C-315.84484863 344.92428223 -315.84484863 345.58428223 -315.84484863 346.26428223 C-317.83625423 346.64561521 -319.8376394 346.97753805 -321.84484863 347.26428223 C-323.91638052 345.19275034 -323.15131428 340.82908739 -323.23156738 337.97131348 C-323.25795288 337.12116669 -323.28433838 336.2710199 -323.31152344 335.39511108 C-323.39308695 332.62248737 -323.46430079 329.84976925 -323.53234863 327.07678223 C-323.56795395 325.67560654 -323.56795395 325.67560654 -323.60427856 324.24612427 C-324.47744004 287.90935439 -324.47744004 287.90935439 -319.84484863 279.26428223 C-318.4169161 272.27394583 -317.82050025 265.25897981 -317.59484863 258.13928223 C-317.07542087 249.21625538 -314.42692459 241.09381517 -311.63244629 232.64758301 C-310.90660352 230.4511549 -310.2053384 228.24874048 -309.51281738 226.04162598 C-307.46693819 219.60012107 -305.16785143 213.38332797 -302.25891113 207.27990723 C-301.20424404 205.03072769 -300.20721677 202.78614315 -299.24328613 200.49865723 C-287.72722742 173.36701298 -272.4096994 147.89413681 -254.84484863 124.26428223 C-254.37095703 123.62627686 -253.89706543 122.98827148 -253.40881348 122.33093262 C-243.62054581 109.30331387 -232.63156057 97.46410062 -220.46594238 86.63146973 C-217.83568947 84.25601031 -215.34415636 81.77614929 -212.84484863 79.26428223 C-208.74281279 75.72161491 -204.48505382 72.39789393 -200.19641113 69.08459473 C-198.66482492 67.8990147 -197.13847992 66.70662271 -195.61828613 65.50646973 C-178.39624887 51.93574778 -159.40963793 41.08441246 -139.84484863 31.26428223 C-139.21336914 30.94652832 -138.58188965 30.62877441 -137.93127441 30.3013916 C-118.99557242 20.87717126 -98.89533786 13.28638588 -78.2154541 8.78894043 C-75.76697698 8.24704781 -73.32966948 7.66805696 -70.89172363 7.08068848 C-70.02289551 6.87508301 -69.15406738 6.66947754 -68.25891113 6.4576416 C-66.52811797 6.04778369 -64.79883503 5.63147548 -63.07141113 5.2076416 C-60.00662425 4.49058869 -56.93466547 3.86510977 -53.84484863 3.26428223 C-53.18302582 3.13193176 -52.521203 2.9995813 -51.83932495 2.86322021 C-34.6639512 -0.44601578 -17.40769092 -0.12677053 0 0 Z " fill="#003F18" transform="translate(370.8448486328125,64.7357177734375)"/>
<path d="M0 0 C0.95585999 0.27580902 0.95585999 0.27580902 1.93103027 0.55718994 C24.77498966 7.22344765 46.81453652 16.3741527 65 32 C66.11579926 32.93005345 67.23303512 33.85838557 68.3515625 34.78515625 C71.59860776 37.48854911 74.80232864 40.23837473 78 43 C78.84820313 43.72316406 79.69640625 44.44632813 80.5703125 45.19140625 C85.5091423 49.46893511 89.81879887 53.98780701 94 59 C95.14082031 60.30904297 95.14082031 60.30904297 96.3046875 61.64453125 C114.52947516 82.85000848 128.35255907 108.12646258 136 135 C136.66065768 137.00199298 137.32682225 139.00218215 138 141 C138.53997947 142.72328375 139.06118271 144.45257473 139.5625 146.1875 C139.81128906 147.02667969 140.06007813 147.86585938 140.31640625 148.73046875 C142.43957105 158.88526266 142.15592341 169.28940559 142.13037109 179.61352539 C142.12504708 182.16493778 142.13032486 184.71617132 142.13671875 187.26757812 C142.14419712 201.46729233 141.74594227 215.53739082 139.3125 229.5625 C139.10850586 230.91118164 139.10850586 230.91118164 138.90039062 232.28710938 C136.53384519 246.14552154 129.79128869 258.87395388 123.51953125 271.32421875 C122.81743601 272.72788864 122.11575909 274.13176783 121.41447449 275.5358429 C119.96018083 278.44434153 118.50185398 281.35076693 117.0402832 284.25561523 C115.17067404 287.97193703 113.31014163 291.69271637 111.45236683 295.41496563 C110.01160359 298.29983323 108.56685904 301.18269181 107.12082481 304.06492043 C106.43282795 305.4370802 105.74589433 306.80977364 105.06006813 308.18301964 C104.10493161 310.09366429 103.14463123 312.00162323 102.18286133 313.90893555 C101.63914383 314.99176315 101.09542633 316.07459076 100.53523254 317.19023132 C99.17698875 319.67607679 97.85555413 321.8629127 96 324 C74.00306681 329.1733528 41.27372381 317.80736135 20.25 311.875 C19.4357959 311.64578857 18.6215918 311.41657715 17.78271484 311.18041992 C12.29880873 309.56030555 7.17498838 307.42173584 2 305 C0.72189453 304.42185547 0.72189453 304.42185547 -0.58203125 303.83203125 C-2.263372 303.06350247 -3.94272237 302.29061707 -5.62109375 301.515625 C-8.2052699 300.35648009 -10.79324174 299.25213553 -13.41015625 298.171875 C-31.92310865 290.39093426 -48.13213397 279.44590416 -63 266 C-63.86496094 265.24332031 -64.72992188 264.48664063 -65.62109375 263.70703125 C-73.25869442 256.97498074 -80.65463784 249.91140554 -87.30078125 242.19140625 C-91.15952883 237.74416951 -95.30106437 233.6238205 -99.5 229.5 C-104.33608866 224.75042455 -108.98672965 219.9427752 -113.41357422 214.80859375 C-133.31919374 192.11532975 -162.38675438 179.84261752 -190.86328125 172.05078125 C-191.51594971 171.87200439 -192.16861816 171.69322754 -192.84106445 171.5090332 C-198.87778087 170.08569794 -204.81904674 169.72671407 -210.9921875 169.46484375 C-211.93812775 169.42186661 -212.88406799 169.37888947 -213.8586731 169.33460999 C-216.86397462 169.19884653 -219.86947019 169.06810201 -222.875 168.9375 C-224.9192857 168.84603489 -226.96355675 168.75424162 -229.0078125 168.66210938 C-234.00504661 168.43760556 -239.00246074 168.21760106 -244 168 C-243.88505443 164.99931553 -243.75832795 161.99987891 -243.625 159 C-243.5940625 158.16082031 -243.563125 157.32164062 -243.53125 156.45703125 C-243.27900123 151.03368273 -242.44627287 146.23151313 -241 141 C-240.7694274 139.10674273 -240.56032143 137.21072095 -240.375 135.3125 C-234.56665244 96.87099365 -203.37664816 53.91933971 -172.40429688 30.94091797 C-168.6470778 28.22798018 -164.83259201 25.60486644 -161 23 C-159.43378906 21.90558594 -159.43378906 21.90558594 -157.8359375 20.7890625 C-141.59575936 10.06441656 -122.78109951 3.30353845 -104.02661133 -1.45605469 C-102.31926928 -1.91430768 -100.63901247 -2.47178562 -98.96875 -3.05078125 C-68.37225029 -12.83360945 -30.32892042 -8.78682052 0 0 Z " fill="#FDFDFD" transform="translate(434,201)"/>
<path d="M0 0 C0.33 0 0.66 0 1 0 C1.08196118 4.18001995 0.89445704 7.92212105 0 12 C0.73412109 11.99476318 1.46824219 11.98952637 2.22460938 11.98413086 C22.39148286 11.85942962 41.3857266 11.952501 61 17 C61.969375 17.24878906 62.93875 17.49757813 63.9375 17.75390625 C94.51148341 26.3283407 119.14590264 44.99967098 140.32592773 67.91845703 C144.61441787 72.55559139 149.00725744 77.06085718 153.5 81.5 C157.59050731 85.54521875 161.51185695 89.63561792 165.24609375 94.015625 C172.45153359 102.1678821 180.42517717 109.32268699 189 116 C189.89976562 116.71671875 190.79953125 117.4334375 191.7265625 118.171875 C204.52116344 128.11148234 218.18043356 136.09816195 233.16113281 142.22802734 C236.04482409 143.43862636 238.86140541 144.78650196 241.6875 146.125 C255.80235187 152.6157713 269.88022123 156.54451161 285 160 C286.01175293 160.23251465 287.02350586 160.4650293 288.06591797 160.70458984 C304.93683131 164.51028433 321.79492502 166.51108145 339 168 C336.56905815 170.43522923 334.13522229 172.86682999 331.68359375 175.28125 C330.94238281 176.0134375 330.20117188 176.745625 329.4375 177.5 C328.32181641 178.59828125 328.32181641 178.59828125 327.18359375 179.71875 C324.96588659 181.93979913 324.96588659 181.93979913 323.20703125 184.421875 C320.28185967 187.83888959 316.93310774 190.19929436 313.25 192.75 C312.50137695 193.27295654 311.75275391 193.79591309 310.98144531 194.3347168 C304.18426631 199.00866947 297.14154548 203.10747224 289.87255859 206.99609375 C288.04927377 207.97358361 286.23649966 208.96820879 284.42578125 209.96875 C275.17501058 215.04002033 265.95652778 219.19712663 255.9375 222.5 C255.03225586 222.80115723 254.12701172 223.10231445 253.19433594 223.41259766 C246.15315409 225.71466538 239.07505458 227.60716611 231.859375 229.2734375 C229.11924638 229.71035777 229.11924638 229.71035777 228 231 C226.19188816 231.20896317 224.37783968 231.36780361 222.5625 231.5 C218.63565085 231.71419183 218.63565085 231.71419183 215 233 C213.45218427 233.10518692 211.89996889 233.1487145 210.34863281 233.16113281 C209.37871399 233.17074036 208.40879517 233.1803479 207.40948486 233.19024658 C205.82233673 233.1966214 205.82233673 233.1966214 204.203125 233.203125 C202.55434357 233.21167511 202.55434357 233.21167511 200.87225342 233.22039795 C198.5284522 233.22987095 196.18463752 233.236391 193.84082031 233.24023438 C190.33372713 233.24977229 186.82726367 233.28069993 183.3203125 233.3125 C168.95422558 233.37973101 155.16356399 232.38266254 141 230 C139.40599075 229.74283436 137.81191753 229.48606476 136.21777344 229.22973633 C128.97326231 228.06027499 122.49361653 226.45897594 116 223 C114.47973828 222.24884201 112.95892236 221.4988044 111.4375 220.75 C110.303125 220.1725 109.16875 219.595 108 219 C108 218.34 108 217.68 108 217 C106.97326172 216.87044922 106.97326172 216.87044922 105.92578125 216.73828125 C102.28366638 215.81924292 99.35880975 214.13097687 96.1875 212.1875 C95.536604 211.79079102 94.88570801 211.39408203 94.21508789 210.98535156 C81.48466994 203.06934069 70.25791513 193.71947485 59.45556641 183.37011719 C57.59021833 181.61427461 55.64851113 179.9602135 53.6875 178.3125 C41.56557888 167.72499927 30.59502628 153.19294017 23 139 C23 138.34 23 137.68 23 137 C22.34 137 21.68 137 21 137 C12.9085568 122.98838349 6.24590588 109.62632572 2 94 C1.67 93.34 1.34 92.68 1 92 C0.68672976 89.18056784 0.48970036 86.36021918 0.28125 83.53125 C0.14867388 81.00925996 0.14867388 81.00925996 -1 79 C-2.29315336 68.20247304 -2.15958261 57.29294017 -2.125 46.4375 C-2.12378143 45.60460449 -2.12256287 44.77170898 -2.12130737 43.91357422 C-2.06475444 10.96575466 -2.06475444 10.96575466 0 0 Z " fill="#5DE06E" transform="translate(190,357)"/>
<path d="M0 0 C0.66 0.33 1.32 0.66 2 1 C2.0464521 9.22365418 2.08193437 17.44725303 2.10362434 25.6710062 C2.11403729 29.49010941 2.12815072 33.30912248 2.15087891 37.12817383 C2.17269646 40.81752845 2.18458733 44.50679667 2.18975449 48.19621086 C2.1934343 49.59993791 2.20061992 51.00366052 2.21146011 52.40735054 C2.22609284 54.38162706 2.22681792 56.35599153 2.22705078 58.33032227 C2.231492 59.45173111 2.23593323 60.57313995 2.24050903 61.72853088 C1.8424283 67.14333301 0.10887261 72.02908599 -2 77 C-3.875 76.8125 -3.875 76.8125 -6 76 C-8.04081482 72.05463736 -8.36988121 68.39832597 -8.6328125 64.00390625 C-8.67437469 63.33391098 -8.71593689 62.66391571 -8.75875854 61.97361755 C-8.84495676 60.55597248 -8.92707978 59.13807443 -9.00537109 57.7199707 C-9.12293548 55.59973302 -9.25365869 53.48064344 -9.38671875 51.36132812 C-11.59539033 14.8407474 -11.59539033 14.8407474 0 0 Z " fill="#011606" transform="translate(713,384)"/>
<path d="M0 0 C11.23337941 1.05975277 21.5763746 4.79012098 32.09790039 8.70629883 C34.06160558 9.43716711 36.02760865 10.16154198 37.99414062 10.88476562 C61.36639782 19.50189078 83.74367494 29.97370206 105 43 C106.02738281 43.62261719 107.05476562 44.24523437 108.11328125 44.88671875 C122.50992265 53.82472043 135.86457621 64.16176214 148.36328125 75.59375 C150.32516271 77.38414848 152.30002571 79.15112421 154.29296875 80.90625 C155.40377889 81.89568397 156.51445789 82.8852652 157.625 83.875 C158.15859131 84.3395459 158.69218262 84.8040918 159.24194336 85.28271484 C160.55235273 86.46059638 161.783693 87.72517652 163 89 C163 89.99 163 90.98 163 92 C162.21625 91.525625 161.4325 91.05125 160.625 90.5625 C159.11051322 89.66101977 157.5764103 88.78820515 156 88 C155.62875 87.29875 155.2575 86.5975 154.875 85.875 C152.21264792 81.79272681 148.73643757 79.08715498 145 76 C144.08992187 75.2265625 143.17984375 74.453125 142.2421875 73.65625 C137.62909773 69.78477412 133.4344511 66.63350151 128 64 C126.62437146 62.71034824 125.29233607 61.37310707 124 60 C122.92411541 59.11585722 121.84038645 58.24119484 120.75 57.375 C119.8425 56.59125 118.935 55.8075 118 55 C118 54.34 118 53.68 118 53 C115.69 52.34 113.38 51.68 111 51 C111 50.34 111 49.68 111 49 C110.34902344 48.93554688 109.69804688 48.87109375 109.02734375 48.8046875 C104.73829172 47.6646298 101.32542459 45.43310144 97.5625 43.125 C96.08575332 42.22992385 94.60790797 41.33665754 93.12890625 40.4453125 C92.4239502 40.02024414 91.71899414 39.59517578 90.99267578 39.15722656 C89.27184252 38.15786983 87.49684097 37.25288885 85.71484375 36.3671875 C83.21401322 35.10777644 81.22678595 33.67469026 79 32 C76.96958825 31.04131871 76.96958825 31.04131871 74.75 30.25 C70.13207647 28.46967793 65.59320125 26.55153591 61.0625 24.5625 C60.43118164 24.28631836 59.79986328 24.01013672 59.14941406 23.72558594 C56.27684854 22.46328776 53.41266979 21.19682071 50.58032227 19.84594727 C43.48805135 16.49661855 36.23458106 13.89358123 28.79223633 11.46020508 C26.80247382 10.80921976 24.81613889 10.1485111 22.83007812 9.48632812 C15.10033299 6.91771801 15.10033299 6.91771801 7.23046875 4.83203125 C3.68131401 3.91792005 2.26419612 2.83024515 0 0 Z " fill="#337B46" transform="translate(462,76)"/>
<path d="M0 0 C0 3 0 3 -1.42578125 4.82421875 C-2.04839844 5.43910156 -2.67101562 6.05398437 -3.3125 6.6875 C-3.92738281 7.31011719 -4.54226562 7.93273437 -5.17578125 8.57421875 C-7 10 -7 10 -10 10 C-10.10103027 11.07568237 -10.10103027 11.07568237 -10.20410156 12.1730957 C-11.24728455 15.87831529 -13.01724207 17.51902744 -15.734375 20.23046875 C-16.20941467 20.70696365 -16.68445435 21.18345856 -17.17388916 21.6743927 C-18.17784258 22.67669102 -19.1867338 23.67406475 -20.20019531 24.66674805 C-21.74329672 26.18092238 -23.26690435 27.71285149 -24.7890625 29.24804688 C-29.00979757 33.4419293 -32.41172286 36.78435929 -38 39 C-38.33 39.99 -38.66 40.98 -39 42 C-40.30973998 43.3565164 -41.64802142 44.68557638 -43 46 C-46.83234434 50.2062316 -48.90998894 53.72521019 -51 59 C-51.66 59.99 -52.32 60.98 -53 62 C-53.99 62 -54.98 62 -56 62 C-56.10570313 62.721875 -56.21140625 63.44375 -56.3203125 64.1875 C-57.0623868 67.25815229 -58.19928328 69.33219229 -59.875 72 C-60.64457031 73.2375 -60.64457031 73.2375 -61.4296875 74.5 C-61.94789062 75.325 -62.46609375 76.15 -63 77 C-63.49757813 77.928125 -63.99515625 78.85625 -64.5078125 79.8125 C-65.24644531 80.8953125 -65.24644531 80.8953125 -66 82 C-66.99 82 -67.98 82 -69 82 C-69.33 83.32 -69.66 84.64 -70 86 C-70.66 86 -71.32 86 -72 86 C-70.26142677 80.82617365 -67.29271871 76.4435981 -64.375 71.875 C-63.83302979 71.02333252 -63.29105957 70.17166504 -62.73266602 69.29418945 C-58.71094304 63.01805437 -54.53907255 56.91560511 -50 51 C-49.41581299 50.22293701 -49.41581299 50.22293701 -48.81982422 49.43017578 C-38.92731032 36.28228565 -27.90972751 24.30935515 -15.62109375 13.3671875 C-12.99081671 10.9917063 -10.50146983 8.50975285 -8 6 C-2.9226361 1.46131805 -2.9226361 1.46131805 0 0 Z " fill="#1C311E" transform="translate(166,138)"/>
<path d="M0 0 C0.33 0 0.66 0 1 0 C1.73035626 19.88192042 1.73035626 19.88192042 -1.99609375 26.8671875 C-10.2181771 44.33511555 -4.67896373 73.2332279 -4 92 C-2.02 92 -0.04 92 2 92 C2 91.34 2 90.68 2 90 C4.26708325 89.1344953 6.53775079 88.28240685 8.8125 87.4375 C9.77639648 87.0672168 9.77639648 87.0672168 10.75976562 86.68945312 C15.66015625 84.88671875 15.66015625 84.88671875 19 86 C17.99839844 86.39832031 16.99679688 86.79664063 15.96484375 87.20703125 C14.62237704 87.74214036 13.27993019 88.27729928 11.9375 88.8125 C11.28072266 89.07353516 10.62394531 89.33457031 9.94726562 89.60351562 C8.9659668 89.99506836 8.9659668 89.99506836 7.96484375 90.39453125 C7.30339355 90.6570166 6.64194336 90.91950195 5.96044922 91.18994141 C4.07516875 91.96894024 2.22557729 92.83265791 0.37890625 93.69921875 C-3.0781124 95.03007101 -5.3496485 95.10641399 -9 95 C-9.0497018 88.89853075 -9.08586193 82.79718123 -9.10986328 76.69555664 C-9.11987668 74.62294459 -9.13349135 72.55034651 -9.15087891 70.4777832 C-9.17533313 67.48645566 -9.18653 64.49531606 -9.1953125 61.50390625 C-9.21079636 60.12991417 -9.21079636 60.12991417 -9.22659302 58.72816467 C-9.22747335 53.59848672 -8.75593625 48.97722564 -7.46420288 44.00650024 C-6.53607417 39.9946973 -6.56725862 35.87575693 -6.43359375 31.77539062 C-6.24176602 27.492628 -5.43972242 24.0192251 -4 20 C-3.62543361 18.04913338 -3.2918744 16.08994017 -3 14.125 C-2.24541134 9.32198328 -1.26349571 4.69298406 0 0 Z " fill="#126C2C" transform="translate(53,319)"/>
<path d="M0 0 C0.65795563 -0.00175232 1.31591125 -0.00350464 1.99380493 -0.00531006 C4.14783443 -0.00967581 6.30178035 -0.00680828 8.45581055 -0.00341797 C9.9688468 -0.00409277 11.48188294 -0.00506426 12.99491882 -0.00631714 C16.15954627 -0.00778718 19.32414539 -0.00566279 22.48876953 -0.00097656 C26.51985348 0.00470559 30.55087062 0.00144691 34.5819521 -0.00454903 C37.70572907 -0.00818596 40.82949057 -0.0070015 43.95326805 -0.00442123 C45.43823441 -0.00375984 46.92320223 -0.00455246 48.40816689 -0.00690079 C69.70487432 -0.03318296 69.70487432 -0.03318296 74.0300293 2.12939453 C76.15283857 2.28728944 78.27863961 2.40582017 80.4050293 2.50439453 C87.25175534 2.94589273 93.4400264 4.31339941 100.0300293 6.12939453 C101.63167991 6.49477108 103.23572251 6.84990525 104.8425293 7.19189453 C108.62658569 8.01361481 112.31923713 9.02405218 116.0300293 10.12939453 C116.0300293 10.45939453 116.0300293 10.78939453 116.0300293 11.12939453 C114.28037571 11.18369413 112.53023143 11.22232276 110.7800293 11.25439453 C109.80549805 11.27759766 108.8309668 11.30080078 107.8269043 11.32470703 C105.0300293 11.12939453 105.0300293 11.12939453 103.20581055 10.18408203 C99.17926969 8.23225792 94.55294873 8.31850058 90.14135742 7.91845703 C86.39668008 7.53974511 84.21626031 7.25354854 81.0300293 5.12939453 C78.48197765 4.794336 78.48197765 4.794336 75.62768555 4.78564453 C74.57258789 4.75599609 73.51749023 4.72634766 72.43041992 4.69580078 C71.32891602 4.67388672 70.22741211 4.65197266 69.0925293 4.62939453 C66.91655838 4.58595178 64.74073342 4.53420323 62.56518555 4.47314453 C61.5997583 4.45445313 60.63433105 4.43576172 59.63964844 4.41650391 C57.0300293 4.12939453 57.0300293 4.12939453 55.27970886 3.12564087 C52.23750532 1.77843383 49.74874556 1.88985049 46.42553711 1.90234375 C45.77146378 1.9020517 45.11739044 1.90175964 44.4434967 1.90145874 C42.28991247 1.90284777 40.13667781 1.91838845 37.9831543 1.93408203 C36.4867166 1.93781369 34.99027646 1.94065994 33.49383545 1.94265747 C29.56139339 1.95028193 25.62909983 1.96992015 21.69671631 1.99206543 C17.68153899 2.01254948 13.6663376 2.02166465 9.65112305 2.03173828 C1.7773571 2.05316723 -6.09628831 2.08728877 -13.9699707 2.12939453 C-13.9699707 1.79939453 -13.9699707 1.46939453 -13.9699707 1.12939453 C-9.26747081 0.37451998 -4.76079814 0.00320969 0 0 Z " fill="#4A875E" transform="translate(344.969970703125,64.87060546875)"/>
<path d="M0 0 C4.87931594 9.10969158 3.16238641 21.78833797 3.13037109 31.91625977 C3.12493882 33.96052234 3.13039656 36.00457151 3.13671875 38.04882812 C3.13542969 39.36173828 3.13414062 40.67464844 3.1328125 42.02734375 C3.13168457 43.20031006 3.13055664 44.37327637 3.12939453 45.58178711 C2.99558395 49.11665874 2.52089274 52.50351696 2 56 C1.90915001 57.65218766 1.84779653 59.3064219 1.82421875 60.9609375 C1.78844727 62.28738281 1.78844727 62.28738281 1.75195312 63.640625 C1.70917407 65.45549405 1.67782057 67.27067034 1.65820312 69.0859375 C1.4573824 75.51220057 0.02415601 80.3300329 -3 86 C-3.88869831 83.07894398 -4.03062607 81.01029199 -3.4765625 78.015625 C-3.3425 77.24347656 -3.2084375 76.47132813 -3.0703125 75.67578125 C-2.7820167 74.10532781 -2.49300115 72.53500625 -2.203125 70.96484375 C0.57351359 54.95987983 0.12767922 38.68166289 0.0625 22.5 C0.05747161 20.30859478 0.05291109 18.11718844 0.04882812 15.92578125 C0.03793636 10.61716247 0.02130585 5.30858668 0 0 Z " fill="#527E67" transform="translate(575,356)"/>
<path d="M0 0 C0.66 0.33 1.32 0.66 2 1 C1 4 1 4 -1 5 C-1.33 5.99 -1.66 6.98 -2 8 C-2.66 8 -3.32 8 -4 8 C-4.06058594 8.60328125 -4.12117187 9.2065625 -4.18359375 9.828125 C-4.26738281 10.62734375 -4.35117187 11.4265625 -4.4375 12.25 C-4.51871094 13.03890625 -4.59992187 13.8278125 -4.68359375 14.640625 C-5 17 -5 17 -5.51168823 18.89674377 C-6.0032627 21.01405309 -6.12685727 22.84200638 -6.12939453 25.01147461 C-6.13254669 25.79006332 -6.13569885 26.56865204 -6.13894653 27.37083435 C-6.1369223 28.20623245 -6.13489807 29.04163055 -6.1328125 29.90234375 C-6.13376923 30.77589005 -6.13472595 31.64943634 -6.13571167 32.54945374 C-6.13639189 34.40121533 -6.13454859 36.25297932 -6.13037109 38.10473633 C-6.12507859 40.89605296 -6.13029114 43.68720438 -6.13671875 46.47851562 C-6.1399239 56.03722841 -5.9700196 65.48209695 -5 75 C-3.68 75.33 -2.36 75.66 -1 76 C-1.99 76.495 -1.99 76.495 -3 77 C-6 76 -6 76 -7.14794922 73.87475586 C-8.13920716 70.5303254 -8.42440127 67.48712207 -8.6328125 64.00390625 C-8.67437469 63.33391098 -8.71593689 62.66391571 -8.75875854 61.97361755 C-8.84495676 60.55597248 -8.92707978 59.13807443 -9.00537109 57.7199707 C-9.12293548 55.59973302 -9.25365869 53.48064344 -9.38671875 51.36132812 C-11.59539033 14.8407474 -11.59539033 14.8407474 0 0 Z " fill="#01280E" transform="translate(713,384)"/>
<path d="M0 0 C0.495 0.99 0.495 0.99 1 2 C-0.25 5.0625 -0.25 5.0625 -2 8 C-2.99 8.33 -3.98 8.66 -5 9 C-5.33 9.99 -5.66 10.98 -6 12 C-7.30973998 13.3565164 -8.64802142 14.68557638 -10 16 C-13.83234434 20.2062316 -15.90998894 23.72521019 -18 29 C-18.66 29.99 -19.32 30.98 -20 32 C-20.99 32 -21.98 32 -23 32 C-23.10570313 32.721875 -23.21140625 33.44375 -23.3203125 34.1875 C-24.0623868 37.25815229 -25.19928328 39.33219229 -26.875 42 C-27.38804688 42.825 -27.90109375 43.65 -28.4296875 44.5 C-28.94789062 45.325 -29.46609375 46.15 -30 47 C-30.49757813 47.928125 -30.99515625 48.85625 -31.5078125 49.8125 C-32.00023438 50.534375 -32.49265625 51.25625 -33 52 C-33.99 52 -34.98 52 -36 52 C-36.33 53.32 -36.66 54.64 -37 56 C-37.66 56 -38.32 56 -39 56 C-37.26142677 50.82617365 -34.29271871 46.4435981 -31.375 41.875 C-30.83302979 41.02333252 -30.29105957 40.17166504 -29.73266602 39.29418945 C-20.87656028 25.47371593 -10.85394384 12.32069301 0 0 Z " fill="#2A3C2A" transform="translate(133,168)"/>
<path d="M0 0 C-1.66666667 1 -3.33333333 2 -5 3 C-5.72703125 3.47050781 -6.4540625 3.94101563 -7.203125 4.42578125 C-10.53219619 6.29954618 -13.97873432 7.59116714 -17.5625 8.875 C-29.63391812 13.22512809 -29.63391812 13.22512809 -41.1875 18.75 C-45.04784199 20.46570755 -48.81572617 20.7303468 -53 21 C-49.26618622 17.86714306 -45.06439983 15.93726252 -40.6875 13.875 C-39.87023437 13.48828125 -39.05296875 13.1015625 -38.2109375 12.703125 C-6.5230295 -2.02438846 -6.5230295 -2.02438846 0 0 Z " fill="#2F6D43" transform="translate(276,80)"/>
<path d="M0 0 C0.33 0 0.66 0 1 0 C1.33 17.82 1.66 35.64 2 54 C2.99 53.505 2.99 53.505 4 53 C4.03963867 53.79470703 4.07927734 54.58941406 4.12011719 55.40820312 C5.24515515 76.98550185 5.24515515 76.98550185 10 98 C11.06154664 101.72885056 11.07466998 105.1171612 11 109 C10.67 109 10.34 109 10 109 C3.55752814 83.46950827 3.55752814 83.46950827 2.421875 72.0859375 C2.10936212 68.99598127 2.10936212 68.99598127 0.98583984 66.19750977 C-0.74793225 60.22163733 -0.24448898 53.91736457 -0.1953125 47.75390625 C-0.19157695 46.37385769 -0.18873254 44.99380645 -0.18673706 43.61375427 C-0.17914324 40.00192798 -0.15953194 36.39026551 -0.1373291 32.77850342 C-0.11677846 29.08478002 -0.10771573 25.39102986 -0.09765625 21.69726562 C-0.07628148 14.4647695 -0.0421977 7.23240781 0 0 Z " fill="#5EC372" transform="translate(43,376)"/>
<path d="M0 0 C4.78982501 2.65628621 9.31000102 5.48385247 13.75 8.6875 C14.35489258 9.12247803 14.95978516 9.55745605 15.58300781 10.00561523 C23.91955367 16.05608618 31.76425257 22.64326966 39.36328125 29.59375 C41.32516271 31.38414848 43.30002571 33.15112421 45.29296875 34.90625 C46.40377889 35.89568397 47.51445789 36.8852652 48.625 37.875 C49.42538696 38.57181885 49.42538696 38.57181885 50.24194336 39.28271484 C51.55235273 40.46059638 52.783693 41.72517652 54 43 C54 43.99 54 44.98 54 46 C53.21625 45.525625 52.4325 45.05125 51.625 44.5625 C50.11051322 43.66101977 48.5764103 42.78820515 47 42 C46.62875 41.29875 46.2575 40.5975 45.875 39.875 C43.21264792 35.79272681 39.73643757 33.08715498 36 30 C34.63488281 28.83984375 34.63488281 28.83984375 33.2421875 27.65625 C28.62909773 23.78477412 24.4344511 20.63350151 19 18 C17.62437146 16.71034824 16.29233607 15.37310707 15 14 C13.92411541 13.11585722 12.84038645 12.24119484 11.75 11.375 C10.8425 10.59125 9.935 9.8075 9 9 C9 8.34 9 7.68 9 7 C6.69 6.34 4.38 5.68 2 5 C2 4.34 2 3.68 2 3 C1.34 3 0.68 3 0 3 C0 2.01 0 1.02 0 0 Z " fill="#438F58" transform="translate(571,122)"/>
<path d="M0 0 C0 2 0 2 -1.0625 3.4375 C-3.27123869 5.21874088 -5.5770351 6.13933856 -8.19140625 7.19921875 C-11.03254342 8.45717365 -13.44809982 10.23329987 -16 12 C-17.8903572 13.23757198 -19.78667068 14.46607354 -21.6875 15.6875 C-22.61949219 16.28949219 -23.55148438 16.89148438 -24.51171875 17.51171875 C-27 19 -27 19 -30 20 C-30.45503906 20.46664062 -30.91007812 20.93328125 -31.37890625 21.4140625 C-33.38000464 23.37176358 -35.38837888 24.23268708 -37.9375 25.375 C-42.06669058 27.35557106 -44.3549948 29.19119251 -47 33 C-48.485 33.495 -48.485 33.495 -50 34 C-50.66 34.99 -51.32 35.98 -52 37 C-53.32 36.67 -54.64 36.34 -56 36 C-53.9616878 34.24596279 -51.91954231 32.49675027 -49.875 30.75 C-49.30523437 30.25886719 -48.73546875 29.76773438 -48.1484375 29.26171875 C-38.23708849 20.8145463 -13.37151291 0 0 0 Z " fill="#598364" transform="translate(223,101)"/>
<path d="M0 0 C0.33 0 0.66 0 1 0 C1.01030746 0.6882486 1.02061493 1.37649719 1.03123474 2.08560181 C1.13950583 9.25589095 1.25408683 16.42605966 1.37231445 23.59619141 C1.41610221 26.27129929 1.45727677 28.94641119 1.49731445 31.62158203 C1.55517809 35.46915654 1.61882644 39.31659877 1.68359375 43.1640625 C1.70866249 44.95500839 1.70866249 44.95500839 1.73423767 46.78213501 C1.75418289 47.90284393 1.77412811 49.02355286 1.79467773 50.17822266 C1.81799416 51.65048813 1.81799416 51.65048813 1.84178162 53.15249634 C2.00899026 56.16180039 2.46827609 59.03540553 3 62 C3.13364204 63.5785969 3.24053651 65.15976147 3.31640625 66.7421875 C3.35830078 67.58007812 3.40019531 68.41796875 3.44335938 69.28125 C3.48267578 70.1371875 3.52199219 70.993125 3.5625 71.875 C3.60568359 72.75414062 3.64886719 73.63328125 3.69335938 74.5390625 C3.79869339 76.69255797 3.89977649 78.84626064 4 81 C1.42337719 78.42337719 1.65884312 77.07916539 1.4375 73.5 C1.26480654 69.60401365 1.26480654 69.60401365 0 66 C-1.21934948 55.87882684 -1.15655022 45.6551783 -1.13037109 35.47753906 C-1.12500692 33.00319292 -1.1303542 30.52902822 -1.13671875 28.0546875 C-1.14023286 18.65373083 -0.8387548 9.36959802 0 0 Z " fill="#47D058" transform="translate(189,370)"/>
<path d="M0 0 C11.14369914 1.05129237 21.55748636 4.72072317 32.0625 8.4375 C33.18849609 8.81970703 34.31449219 9.20191406 35.47460938 9.59570312 C36.54646484 9.97533203 37.61832031 10.35496094 38.72265625 10.74609375 C39.68953369 11.08310303 40.65641113 11.4201123 41.65258789 11.76733398 C44.33665287 13.17678215 44.98831014 14.19343596 46 17 C37.50128506 14.5224844 29.12571984 11.72379358 20.74609375 8.87304688 C16.32670908 7.38396758 11.96021103 5.93709987 7.4140625 4.88671875 C3.75312487 3.93588026 2.33261528 2.9157691 0 0 Z " fill="#276E3A" transform="translate(462,76)"/>
<path d="M0 0 C-6.22159393 2.41016702 -11.92722817 4.18940178 -18.625 4.5 C-23.90015843 4.75778486 -27.7851634 5.86018375 -32.57421875 8.0078125 C-36.54281227 9.63103755 -40.73238892 10.58144584 -45 11 C-45.66 10.67 -46.32 10.34 -47 10 C-49.3400417 10.28241883 -51.67504723 10.61250787 -54 11 C-49.90872128 8.27248085 -45.73584295 7.12820363 -40.97265625 6.09765625 C-37.52779846 5.34278185 -34.09223792 4.55709935 -30.66015625 3.74609375 C-29.2824707 3.42415039 -29.2824707 3.42415039 -27.87695312 3.09570312 C-26.00348299 2.65756334 -24.13107272 2.21486616 -22.25976562 1.76757812 C-6.3604352 -1.92035346 -6.3604352 -1.92035346 0 0 Z " fill="#337549" transform="translate(331,68)"/>
<path d="M0 0 C2.99103453 3.53817499 4.70290668 7.52800784 6.5 11.75 C6.94279297 12.76707031 6.94279297 12.76707031 7.39453125 13.8046875 C13 26.79357104 13 26.79357104 13 31 C12.01 31 11.02 31 10 31 C9.32779649 29.06441401 8.66241923 27.12645628 8 25.1875 C7.62875 24.10855469 7.2575 23.02960938 6.875 21.91796875 C6 19 6 19 6 16 C5.34 16 4.68 16 4 16 C0.67424388 10.4174808 -0.46450943 6.50313209 0 0 Z " fill="#3C7C4F" transform="translate(684,254)"/>
<path d="M0 0 C-0.65484375 0.51046875 -1.3096875 1.0209375 -1.984375 1.546875 C-9.53467755 7.56152279 -16.2740887 14.09419806 -23 21 C-24.33111666 22.33554633 -25.66351086 23.66982996 -27 25 C-26.45276317 21.62537285 -25.9451 19.91765 -24 17 C-23.34 17 -22.68 17 -22 17 C-22 16.34 -22 15.68 -22 15 C-17.52941176 11 -17.52941176 11 -15 11 C-14.67 9.68 -14.34 8.36 -14 7 C-13.01 7 -12.02 7 -11 7 C-11 5.68 -11 4.36 -11 3 C-9.68 3 -8.36 3 -7 3 C-7 2.34 -7 1.68 -7 1 C-3.375 -1.125 -3.375 -1.125 0 0 Z " fill="#1E4D14" transform="translate(263,232)"/>
<path d="M0 0 C4.06659926 3.851788 7.39522854 7.9759263 10.6875 12.5 C11.41549805 13.47646484 11.41549805 13.47646484 12.15820312 14.47265625 C14.64236605 17.86482355 16.67211618 20.96199071 18 25 C13.28320331 23.07834209 9.83722854 19.93884503 7.8125 15.25 C7.544375 14.5075 7.27625 13.765 7 13 C6.34 12.67 5.68 12.34 5 12 C2.46028288 7.99802151 0.57823838 4.77046664 0 0 Z " fill="#39754F" transform="translate(641,185)"/>
<path d="M0 0 C0.66 0.33 1.32 0.66 2 1 C-8.23047486 9.51030652 -18.74158394 16.61886934 -30.71484375 22.38671875 C-34.36000374 24.17679137 -37.84969605 26.15771191 -41.328125 28.25 C-41.87984375 28.4975 -42.4315625 28.745 -43 29 C-43.66 28.67 -44.32 28.34 -45 28 C-40.99378438 25.22091349 -37.04646183 22.96495464 -32.625 20.875 C-21.00548565 15.21844129 -9.9096334 8.31308135 0 0 Z " fill="#38CA4A" transform="translate(509,544)"/>
<path d="M0 0 C0.33 0 0.66 0 1 0 C1.43340314 11.79819654 0.73963058 23.4680565 -5 34 C-5.33 34 -5.66 34 -6 34 C-6.18404685 28.66264137 -5.75443544 25.06836904 -4 20 C-3.44845995 17.00471326 -2.98049477 14.00084764 -2.5078125 10.9921875 C-1.87406262 7.25793823 -0.98425414 3.65580111 0 0 Z " fill="#0B5721" transform="translate(53,319)"/>
<path d="M0 0 C1.30586053 3.9175816 0.05867247 6.24296481 -1.3125 9.9375 C-3.65320066 16.58028844 -5.04437756 23.01375048 -6 30 C-6.3687265 32.2510366 -6.74360344 34.50107544 -7.125 36.75 C-7.37636719 38.25820313 -7.37636719 38.25820313 -7.6328125 39.796875 C-7.75398437 40.52390625 -7.87515625 41.2509375 -8 42 C-8.33 42 -8.66 42 -9 42 C-9.20229487 35.05454293 -8.41339147 28.37923665 -7.5 21.5 C-7.35691406 20.39140625 -7.21382812 19.2828125 -7.06640625 18.140625 C-6.71543722 15.42646454 -6.35986083 12.71299335 -6 10 C-5.01 9.67 -4.02 9.34 -3 9 C-2.23397184 7.15808143 -2.23397184 7.15808143 -1.875 5 C-1.07623318 1.07623318 -1.07623318 1.07623318 0 0 Z " fill="#346A43" transform="translate(199,315)"/>
<path d="M0 0 C0.66 0 1.32 0 2 0 C13.22873271 28.3346319 13.22873271 28.3346319 13 40 C12.67 40 12.34 40 12 40 C11.74605469 38.94941406 11.49210938 37.89882813 11.23046875 36.81640625 C8.52901292 25.74795973 5.19265947 15.32661901 0.98828125 4.72265625 C0 2 0 2 0 0 Z " fill="#31664A" transform="translate(562,313)"/>
<path d="M0 0 C0.33 0 0.66 0 1 0 C1.34115306 4.24546032 0.47145908 6.44347005 -1.8125 10 C-2.33457031 10.825 -2.85664062 11.65 -3.39453125 12.5 C-4.18923828 13.7375 -4.18923828 13.7375 -5 15 C-5.74830078 16.3921875 -5.74830078 16.3921875 -6.51171875 17.8125 C-7.00285156 18.534375 -7.49398437 19.25625 -8 20 C-8.99 20 -9.98 20 -11 20 C-11.33 21.32 -11.66 22.64 -12 24 C-12.66 24 -13.32 24 -14 24 C-12.70363929 20.53166989 -11.18997707 17.48470086 -9.21484375 14.35546875 C-8.68439453 13.51435547 -8.15394531 12.67324219 -7.60742188 11.80664062 C-7.05634766 10.94232422 -6.50527344 10.07800781 -5.9375 9.1875 C-5.38255859 8.30384766 -4.82761719 7.42019531 -4.25585938 6.50976562 C-1.19177388 1.6766466 -1.19177388 1.6766466 0 0 Z " fill="#33793F" transform="translate(108,200)"/>
<path d="M0 0 C0 2 0 2 -1.0625 3.4375 C-3.26904253 5.21696979 -5.56933641 6.13806248 -8.18359375 7.19140625 C-11.01156725 8.45031058 -13.44447417 10.26224244 -16 12 C-18.97516346 13.71267634 -21.98225247 15.36371023 -25 17 C-23.70042837 12.8812243 -22.4871614 11.22912323 -18.71875 9.140625 C-17.87699219 8.66496094 -17.03523437 8.18929687 -16.16796875 7.69921875 C-15.28753906 7.22097656 -14.40710938 6.74273437 -13.5 6.25 C-12.61957031 5.75628906 -11.73914063 5.26257813 -10.83203125 4.75390625 C-2.3270976 0 -2.3270976 0 0 0 Z " fill="#2C6C44" transform="translate(223,101)"/>
<path d="M0 0 C4.29889395 2.6212768 7.63654479 5.51609628 11.1328125 9.12890625 C13.70225995 11.70372911 16.44093174 14.05743757 19.203125 16.421875 C20.87340058 17.88881269 22.44788672 19.40956293 24 21 C23.67 21.66 23.34 22.32 23 23 C22.21625 22.525625 21.4325 22.05125 20.625 21.5625 C19.11051322 20.66101977 17.5764103 19.78820515 16 19 C15.62875 18.29875 15.2575 17.5975 14.875 16.875 C11.59718132 11.84901136 6.76644644 8.32483483 2 4.75 C1.34 4.1725 0.68 3.595 0 3 C0 2.01 0 1.02 0 0 Z " fill="#498C5F" transform="translate(602,145)"/>
<path d="M0 0 C2.10412898 2.10412898 2.58158372 3.23084857 3.5078125 5.9921875 C3.90419922 7.17361328 3.90419922 7.17361328 4.30859375 8.37890625 C4.57800781 9.20261719 4.84742188 10.02632813 5.125 10.875 C5.40214844 11.69097656 5.67929687 12.50695312 5.96484375 13.34765625 C6.22652344 14.13785156 6.48820313 14.92804688 6.7578125 15.7421875 C7.11576904 16.82282471 7.11576904 16.82282471 7.48095703 17.92529297 C8 20 8 20 8 24 C7.34 24 6.68 24 6 24 C6 23.34 6 22.68 6 22 C5.34 22 4.68 22 4 22 C3.87882813 21.40832031 3.75765625 20.81664062 3.6328125 20.20703125 C2.59339813 15.21811684 2.59339813 15.21811684 0.875 10.4375 C-0.39765053 6.89225924 -0.12726545 3.75433065 0 0 Z " fill="#256937" transform="translate(697,285)"/>
<path d="M0 0 C0.66 0.33 1.32 0.66 2 1 C-5.59 8.59 -13.18 16.18 -21 24 C-21.66 23.67 -22.32 23.34 -23 23 C-6.23287671 4.50684932 -6.23287671 4.50684932 0 0 Z " fill="#E1E4D7" transform="translate(259,234)"/>
<path d="M0 0 C0 3 0 3 -1.42578125 4.82421875 C-2.04839844 5.43910156 -2.67101562 6.05398437 -3.3125 6.6875 C-3.92738281 7.31011719 -4.54226562 7.93273437 -5.17578125 8.57421875 C-7 10 -7 10 -10 10 C-10 10.66 -10 11.32 -10 12 C-11.65002828 13.35386936 -13.3174387 14.68678142 -15 16 C-15.33 16.66 -15.66 17.32 -16 18 C-16.66 18 -17.32 18 -18 18 C-18 18.66 -18 19.32 -18 20 C-19.32 19.67 -20.64 19.34 -22 19 C-21.11248047 18.22076172 -21.11248047 18.22076172 -20.20703125 17.42578125 C-16.83612881 14.45080863 -13.49245594 11.49245594 -10.3125 8.3125 C-7.20342602 5.20342602 -3.95775053 1.97887527 0 0 Z " fill="#485C4C" transform="translate(166,138)"/>
<path d="M0 0 C0.99 0.495 0.99 0.495 2 1 C2.6328125 3.06640625 2.6328125 3.06640625 3.125 5.5625 C3.29257812 6.38878906 3.46015625 7.21507812 3.6328125 8.06640625 C3.75398438 8.70449219 3.87515625 9.34257812 4 10 C4.66 10 5.32 10 6 10 C6.81474962 12.8952173 7.62687322 15.79112828 8.4375 18.6875 C8.66759766 19.50412109 8.89769531 20.32074219 9.13476562 21.16210938 C10.23183446 25.08929781 11.28776908 28.98039791 12 33 C9.75689202 30.23619162 8.38194015 27.77761082 7.24609375 24.41015625 C6.94896484 23.54326172 6.65183594 22.67636719 6.34570312 21.78320312 C6.04599609 20.88537109 5.74628906 19.98753906 5.4375 19.0625 C4.83295537 17.282238 4.22751355 15.50228037 3.62109375 13.72265625 C3.20126221 12.47766357 3.20126221 12.47766357 2.77294922 11.20751953 C2.17137596 9.48944455 1.49287791 7.79823479 0.78515625 6.12109375 C0 4 0 4 0 0 Z " fill="#36BC4C" transform="translate(55,489)"/>
<path d="M0 0 C1 2 1 2 0.51171875 3.98828125 C0.10373047 5.13876953 0.10373047 5.13876953 -0.3125 6.3125 C-0.73402344 7.51132813 -0.73402344 7.51132813 -1.1640625 8.734375 C-2.06484488 11.17574781 -2.99357584 13.60006547 -4 16 C-4.66 16 -5.32 16 -6 16 C-6.33 17.32 -6.66 18.64 -7 20 C-7.99 19.67 -8.98 19.34 -10 19 C-8.40376856 14.60616294 -6.21975667 10.71004193 -3.875 6.6875 C-3.50246094 6.04232422 -3.12992187 5.39714844 -2.74609375 4.73242188 C-1.83367787 3.15324055 -0.91724491 1.57638136 0 0 Z " fill="#266F37" transform="translate(93,224)"/>
<path d="M0 0 C0.33 0 0.66 0 1 0 C0.5547115 5.27315333 -0.08373163 10.01770224 -2 15 C-2.66 15 -3.32 15 -4 15 C-4.185625 16.299375 -4.185625 16.299375 -4.375 17.625 C-4.98058121 20.89513853 -5.88306035 23.87256899 -7 27 C-7.66 27 -8.32 27 -9 27 C-6.75424696 17.70179445 -3.45076489 8.90051656 0 0 Z " fill="#3D7C4B" transform="translate(68,273)"/>
<path d="M0 0 C0.99 0.495 0.99 0.495 2 1 C2.67016602 3.20898438 2.67016602 3.20898438 3.25390625 6.09375 C3.46853516 7.12371094 3.68316406 8.15367187 3.90429688 9.21484375 C4.12150391 10.29894531 4.33871094 11.38304687 4.5625 12.5 C4.99809632 14.63607291 5.43673309 16.77152882 5.87890625 18.90625 C6.0704126 19.85822266 6.26191895 20.81019531 6.45922852 21.79101562 C6.78802762 23.96092326 6.78802762 23.96092326 8 25 C8.04092937 27.33297433 8.04241723 29.66705225 8 32 C5 30 5 30 4.375 27.3046875 C4.25125 26.17289062 4.1275 25.04109375 4 23.875 C3.31052843 18.24236782 2.44717454 12.69755201 1.375 7.125 C1.23964844 6.41714355 1.10429688 5.70928711 0.96484375 4.97998047 C0.64581859 3.31948739 0.32331115 1.65966389 0 0 Z " fill="#19BB36" transform="translate(49,458)"/>
<path d="M0 0 C0.66 0.33 1.32 0.66 2 1 C-0.28356246 3.34138543 -2.57813374 5.67166982 -4.875 8 C-5.52597656 8.66773438 -6.17695313 9.33546875 -6.84765625 10.0234375 C-7.47285156 10.65507812 -8.09804687 11.28671875 -8.7421875 11.9375 C-9.3182373 12.52402344 -9.89428711 13.11054688 -10.48779297 13.71484375 C-12 15 -12 15 -14 15 C-14.433125 15.9590625 -14.433125 15.9590625 -14.875 16.9375 C-16 19 -16 19 -18 20 C-14.20941075 11.72296453 -6.7964161 5.79467676 0 0 Z " fill="#022E12" transform="translate(144,172)"/>
<path d="M0 0 C1 2 1 2 0.00390625 5.0390625 C-0.47175781 6.22242188 -0.94742188 7.40578125 -1.4375 8.625 C-1.91058594 9.81351562 -2.38367188 11.00203125 -2.87109375 12.2265625 C-3.24363281 13.14179688 -3.61617187 14.05703125 -4 15 C-6.9921875 11.296875 -6.9921875 11.296875 -7.0625 8.625 C-5.51293236 4.79665641 -3.03813348 2.77956893 0 0 Z " fill="#46C14F" transform="translate(707,481)"/>
<path d="M0 0 C3.41731792 0.1100917 6.83355574 0.24067061 10.25 0.375 C11.21808594 0.4059375 12.18617188 0.436875 13.18359375 0.46875 C14.58544922 0.52675781 14.58544922 0.52675781 16.015625 0.5859375 C16.87446289 0.6173584 17.73330078 0.6487793 18.61816406 0.68115234 C21.1282028 1.01716204 22.81932328 1.74191728 25 3 C21.5834948 3.08724706 18.16727687 3.14047325 14.75 3.1875 C13.78191406 3.21263672 12.81382812 3.23777344 11.81640625 3.26367188 C10.88183594 3.27333984 9.94726562 3.28300781 8.984375 3.29296875 C8.12553711 3.3086792 7.26669922 3.32438965 6.38183594 3.34057617 C3.51716184 2.93095949 2.14936836 1.886136 0 0 Z " fill="#236E36" transform="translate(398,66)"/>
<path d="M0 0 C4.09240593 5.0667883 6.47367627 9.3685322 6 16 C5.34 16 4.68 16 4 16 C0.67424388 10.4174808 -0.46450943 6.50313209 0 0 Z " fill="#256D3C" transform="translate(684,254)"/>
<path d="M0 0 C0.33 0 0.66 0 1 0 C1.25222758 18.63681555 1.25222758 18.63681555 -1.54296875 21.6796875 C-2.26419922 22.33324219 -2.26419922 22.33324219 -3 23 C-2.53430878 15.1812896 -1.77541538 7.63600985 0 0 Z " fill="#3F7152" transform="translate(574,419)"/>
<path d="M0 0 C0.33 0 0.66 0 1 0 C1.78459533 6.14599676 -0.01354504 9.24423545 -3.4921875 14.27734375 C-3.98976563 14.84582031 -4.48734375 15.41429687 -5 16 C-5.66 16 -6.32 16 -7 16 C-5.35433477 10.31497465 -2.70967216 5.23318364 0 0 Z " fill="#2C402D" transform="translate(555,475)"/>
<path d="M0 0 C0.66 0.33 1.32 0.66 2 1 C-1.63 6.94 -5.26 12.88 -9 19 C-9.33 17.68 -9.66 16.36 -10 15 C-9.34 15 -8.68 15 -8 15 C-7.67 12.69 -7.34 10.38 -7 8 C-6.01 8 -5.02 8 -4 8 C-3.67 6.02 -3.34 4.04 -3 2 C-2.01 2 -1.02 2 0 2 C0 1.34 0 0.68 0 0 Z " fill="#376836" transform="translate(220,275)"/>
<path d="M0 0 C0.66 0.33 1.32 0.66 2 1 C0.37660195 2.70884005 -1.29319053 4.37446717 -3 6 C-3.66 6 -4.32 6 -5 6 C-5.226875 6.556875 -5.45375 7.11375 -5.6875 7.6875 C-7.37550036 10.66159588 -9.46676517 12.72008865 -12 15 C-12.66 15 -13.32 15 -14 15 C-13.34 13.35 -12.68 11.7 -12 10 C-11.34 10 -10.68 10 -10 10 C-10 9.34 -10 8.68 -10 8 C-8.06640625 6.30859375 -8.06640625 6.30859375 -5.5625 4.4375 C-2.67307373 2.34532911 -2.67307373 2.34532911 0 0 Z " fill="#022F11" transform="translate(178,142)"/>
<path d="M0 0 C6.57534861 0.62031591 12.66692592 2.14897283 19 4 C15.33846813 6.44102125 14.29430646 6.07594198 10.0625 5.375 C9.02222656 5.21773438 7.98195313 5.06046875 6.91015625 4.8984375 C3.61795872 3.88205437 2.2018079 2.59972499 0 0 Z " fill="#3D844F" transform="translate(462,76)"/>
<path d="M0 0 C-2.05244905 2.05244905 -3.30263864 2.98616418 -6 4 C-9.015625 3.9765625 -9.015625 3.9765625 -12.25 3.625 C-13.32765625 3.51414062 -14.4053125 3.40328125 -15.515625 3.2890625 C-16.74539063 3.14597656 -16.74539063 3.14597656 -18 3 C-13.80037019 -1.19962981 -5.654559 -0.10097427 0 0 Z " fill="#105724" transform="translate(347,66)"/>
<path d="M0 0 C-2.38883168 2.38883168 -3.72807453 2.55499115 -7 3.1875 C-7.886875 3.36667969 -8.77375 3.54585938 -9.6875 3.73046875 C-12 4 -12 4 -14 3 C-16.3400417 3.28241883 -18.67504723 3.61250787 -21 4 C-14.23124259 -0.51250494 -7.88231789 -0.22958207 0 0 Z " fill="#2D6E43" transform="translate(298,75)"/>
<path d="M0 0 C0.33 0 0.66 0 1 0 C2 7 3 14 4 21 C3.01 21 2.02 21 1 21 C-0.67959957 13.69860023 -1.18982084 7.41226226 0 0 Z " fill="#266C37" transform="translate(711,332)"/>
<path d="M0 0 C0.84641218 2.70851897 1.30094727 4.2343984 1 7 C-1.78459361 11.48271283 -5.14472526 14.87918155 -10 17 C-10 16.34 -10 15.68 -10 15 C-8.88814573 14.06232656 -7.73478293 13.17343213 -6.5625 12.3125 C-3.48433535 9.79907927 -3.05294275 9.21883004 -2.0625 5.125 C-2.041875 4.09375 -2.02125 3.0625 -2 2 C-2.66 1.67 -3.32 1.34 -4 1 C-2 0 -2 0 0 0 Z " fill="#042D11" transform="translate(190,125)"/>
<path d="M0 0 C3.68000434 2.75839204 6.49505889 5.62075382 9.3125 9.25 C10.00988281 10.14203125 10.70726562 11.0340625 11.42578125 11.953125 C11.94527344 12.62859375 12.46476563 13.3040625 13 14 C12.01 14.495 12.01 14.495 11 15 C10.67 14.34 10.34 13.68 10 13 C7.97536745 12.34786708 7.97536745 12.34786708 6 12 C6 10.68 6 9.36 6 8 C5.38125 7.79375 4.7625 7.5875 4.125 7.375 C1.15346355 5.45224112 0.86975341 3.33405473 0 0 Z " fill="#447B5A" transform="translate(626,168)"/>
<path d="M0 0 C-4.62 2.97 -9.24 5.94 -14 9 C-14.33 7.68 -14.66 6.36 -15 5 C-13.68 5 -12.36 5 -11 5 C-11 4.34 -11 3.68 -11 3 C-10.01 3 -9.02 3 -8 3 C-8 2.34 -8 1.68 -8 1 C-4.59449725 -1.06762667 -4.18836538 -1.04709135 0 0 Z " fill="#2C501E" transform="translate(284,218)"/>
<path d="M0 0 C-0.78246094 0.20496094 -1.56492187 0.40992187 -2.37109375 0.62109375 C-3.38300781 0.89050781 -4.39492188 1.15992187 -5.4375 1.4375 C-6.44683594 1.70433594 -7.45617187 1.97117187 -8.49609375 2.24609375 C-10.91752001 2.75978077 -10.91752001 2.75978077 -12 4 C-13.51928038 4.07179964 -15.04167482 4.08392007 -16.5625 4.0625 C-17.38878906 4.05347656 -18.21507812 4.04445313 -19.06640625 4.03515625 C-19.70449219 4.02355469 -20.34257812 4.01195313 -21 4 C-18.26384911 1.26384911 -15.29411979 1.01783269 -11.625 0.3125 C-10.95210938 0.17005859 -10.27921875 0.02761719 -9.5859375 -0.11914062 C-6.12276689 -0.80427575 -3.35116246 -1.28031592 0 0 Z " fill="#3D7E52" transform="translate(314,71)"/>
<path d="M0 0 C3.63 0 7.26 0 11 0 C11 0.66 11 1.32 11 2 C6.8803623 3.29243536 3.33168317 4.26252625 -1 4 C-0.67 2.68 -0.34 1.36 0 0 Z " fill="#1BAB21" transform="translate(444,721)"/>
<path d="M0 0 C0.33 0 0.66 0 1 0 C1.50437828 15.24343257 1.50437828 15.24343257 -3 22 C-3.1831111 16.68977816 -2.78539723 13.0411216 -1 8 C-0.55925346 5.3361473 -0.27806128 2.68792568 0 0 Z " fill="#437E54" transform="translate(50,331)"/>
<path d="M0 0 C0.33 0.66 0.66 1.32 1 2 C-0.25 5.0625 -0.25 5.0625 -2 8 C-2.99 8.33 -3.98 8.66 -5 9 C-5.33 9.99 -5.66 10.98 -6 12 C-8.5625 13.1875 -8.5625 13.1875 -11 14 C-7.46386286 9.21224044 -3.85516296 4.53548584 0 0 Z " fill="#485D4B" transform="translate(133,168)"/>
<path d="M0 0 C-4.80061213 3.64184368 -10.19935017 4.13650572 -16 5 C-13.61479824 1.42219736 -12.60320808 1.30176465 -8.5625 0.25 C-7.11037109 -0.14445312 -7.11037109 -0.14445312 -5.62890625 -0.546875 C-3 -1 -3 -1 0 0 Z " fill="#0B5524" transform="translate(287,78)"/>
<path d="M0 0 C0.66 0.33 1.32 0.66 2 1 C1 4 1 4 -1 5 C-1.33 5.99 -1.66 6.98 -2 8 C-2.66 8 -3.32 8 -4 8 C-4.12375 8.86625 -4.2475 9.7325 -4.375 10.625 C-4.98058121 13.89513853 -5.88306035 16.87256899 -7 20 C-7.33 20 -7.66 20 -8 20 C-8.90826345 13.09719778 -5.26858113 7.13457346 -1.33203125 1.6953125 C-0.89246094 1.13585937 -0.45289063 0.57640625 0 0 Z " fill="#002B10" transform="translate(713,384)"/>
<path d="M0 0 C5.68748885 1.25124755 8.72847508 3.04102568 13 7 C12.67 7.99 12.34 8.98 12 10 C11.45730469 9.57847656 10.91460938 9.15695313 10.35546875 8.72265625 C9.64003906 8.17480469 8.92460938 7.62695312 8.1875 7.0625 C7.47980469 6.51722656 6.77210938 5.97195312 6.04296875 5.41015625 C3.95874948 3.83143752 3.95874948 3.83143752 1 3 C0.67 2.01 0.34 1.02 0 0 Z " fill="#2B7C42" transform="translate(589,137)"/>
<path d="M0 0 C3.43734063 -0.08703823 6.87439837 -0.14040272 10.3125 -0.1875 C11.28896484 -0.21263672 12.26542969 -0.23777344 13.27148438 -0.26367188 C14.20927734 -0.27333984 15.14707031 -0.28300781 16.11328125 -0.29296875 C16.97735596 -0.3086792 17.84143066 -0.32438965 18.73168945 -0.34057617 C21.45018536 0.06759322 22.30363829 0.89592904 24 3 C22.824375 2.855625 21.64875 2.71125 20.4375 2.5625 C13.64447676 1.80046214 6.82083163 1.42237034 0 1 C0 0.67 0 0.34 0 0 Z " fill="#0A4F1F" transform="translate(405,69)"/>
<path d="M0 0 C0.91058531 3.07322544 1.08886184 5.80097361 1 9 C-0.98 9.99 -0.98 9.99 -3 11 C-3 11.66 -3 12.32 -3 13 C-3.66 13 -4.32 13 -5 13 C-4.54554036 11.58208592 -4.08625056 10.16571954 -3.625 8.75 C-3.24214844 7.56664062 -3.24214844 7.56664062 -2.8515625 6.359375 C-2.04826333 4.13372042 -1.10288338 2.09068328 0 0 Z " fill="#2D6D3C" transform="translate(78,251)"/>
<path d="M0 0 C3.26008643 3.16952847 6.22237877 6.39937989 9 10 C8.67 10.66 8.34 11.32 8 12 C4.83769026 9.60690073 2.04092395 7.43734561 0 4 C0 2.68 0 1.36 0 0 Z " fill="#437D59" transform="translate(641,185)"/>
<path d="M0 0 C-3.64927898 3.64927898 -8.42923408 4.91585183 -13.5 5.1875 C-14.325 5.125625 -15.15 5.06375 -16 5 C-16 4.34 -16 3.68 -16 3 C-14.27318563 2.49193553 -12.54342021 1.99389533 -10.8125 1.5 C-9.84957031 1.2215625 -8.88664063 0.943125 -7.89453125 0.65625 C-5.14654124 0.03322392 -2.80401584 -0.12302812 0 0 Z " fill="#226A37" transform="translate(262,86)"/>
<path d="M0 0 C3.30616284 3.80208727 7 9.83581485 7 15 C6.01 14.67 5.02 14.34 4 14 C3.67 12.02 3.34 10.04 3 8 C2.34 8 1.68 8 1 8 C-0.35439668 5.29120665 -0.06501451 2.99066732 0 0 Z " fill="#3A774F" transform="translate(677,239)"/>
<path d="M0 0 C0.33 0 0.66 0 1 0 C1.3540919 6.51791392 1.03901852 11.17521449 -2 17 C-3.44715727 13.12813552 -2.5441918 10.1767672 -1.5625 6.25 C-1.27503906 5.07953125 -0.98757813 3.9090625 -0.69140625 2.703125 C-0.46324219 1.81109375 -0.23507812 0.9190625 0 0 Z " fill="#36693F" transform="translate(714,456)"/>
<path d="M0 0 C0.33 0 0.66 0 1 0 C1.39315606 6.02839298 0.33683045 11.40447021 -2 17 C-2.66 17.33 -3.32 17.66 -4 18 C-3.41632611 11.69632197 -1.95928381 6.01339937 0 0 Z " fill="#28663A" transform="translate(58,301)"/>
<path d="M0 0 C0.99 0 1.98 0 3 0 C4.640625 2.08203125 4.640625 2.08203125 6.25 4.8125 C7.06210937 6.15248047 7.06210937 6.15248047 7.890625 7.51953125 C9 10 9 10 8 13 C5.81302498 10.20375042 4.00847187 7.36692128 2.3125 4.25 C1.65701172 3.05117188 1.65701172 3.05117188 0.98828125 1.828125 C0.49908203 0.92320312 0.49908203 0.92320312 0 0 Z " fill="#285936" transform="translate(547,286)"/>
<path d="M0 0 C1.1055189 0.93590504 2.20935453 1.87379858 3.3125 2.8125 C3.92738281 3.33457031 4.54226563 3.85664063 5.17578125 4.39453125 C6.85424679 5.87172469 8.43882034 7.40039131 10 9 C9.67 9.66 9.34 10.32 9 11 C7.824375 10.2884375 7.824375 10.2884375 6.625 9.5625 C5.11051322 8.66101977 3.5764103 7.78820515 2 7 C0.42451317 4.37418862 0 3.12900213 0 0 Z " fill="#598D6B" transform="translate(616,157)"/>
<path d="M0 0 C1.12377697 3.30435084 0.89554742 5.0506862 -0.4375 8.25 C-0.72496094 8.95640625 -1.01242188 9.6628125 -1.30859375 10.390625 C-1.53675781 10.92171875 -1.76492187 11.4528125 -2 12 C-2.99 11.67 -3.98 11.34 -5 11 C-3.55049545 7.2089881 -1.84827434 3.6125362 0 0 Z " fill="#357A44" transform="translate(88,232)"/>
<path d="M0 0 C1.32 0.33 2.64 0.66 4 1 C2.75803878 2.15454162 1.50607155 3.29832562 0.25 4.4375 C-0.79414063 5.39462891 -0.79414063 5.39462891 -1.859375 6.37109375 C-3.98792725 7.99081325 -5.39023405 8.58267256 -8 9 C-6.73786958 5.21360875 -5.34654649 4.95895404 -2 3 C-1.34 2.01 -0.68 1.02 0 0 Z " fill="#162F19" transform="translate(180,128)"/>
<path d="M0 0 C0 2 0 2 -1 3.5625 C-4.12434729 5.80812461 -7.19781708 5.68834566 -11 6 C-8.24029211 2.78034079 -4.3526723 0 0 0 Z " fill="#3F7453" transform="translate(223,101)"/>
<path d="M0 0 C-4.51667907 3.01111938 -7.6639991 3.10067926 -13 3 C-8.07780292 -0.77368442 -6.24627114 -1.04104519 0 0 Z " fill="#3A794C" transform="translate(250,91)"/>
<path d="M0 0 C0.66 0 1.32 0 2 0 C-1.07517084 10.55808656 -1.07517084 10.55808656 -3 15 C-3.33 15 -3.66 15 -4 15 C-4 13.02 -4 11.04 -4 9 C-3.34 9 -2.68 9 -2 9 C-2.33 8.01 -2.66 7.02 -3 6 C-2.67 5.34 -2.34 4.68 -2 4 C-1.34 4 -0.68 4 0 4 C0 2.68 0 1.36 0 0 Z " fill="#2CB839" transform="translate(691,523)"/>
<path d="M0 0 C0.66 0 1.32 0 2 0 C5.31168629 4.0909066 6.50130606 6.73628638 6 12 C3.25207517 8.59780735 0 4.51535412 0 0 Z " fill="#2B6141" transform="translate(556,301)"/>
<path d="M0 0 C0.66 0.33 1.32 0.66 2 1 C-0.05233685 3.2477975 -1.00667261 4.0022242 -4 5 C-4.99 6.485 -4.99 6.485 -6 8 C-7.32 7.67 -8.64 7.34 -10 7 C-8.90081184 6.01524786 -7.7954398 5.03739527 -6.6875 4.0625 C-6.07261719 3.51722656 -5.45773438 2.97195312 -4.82421875 2.41015625 C-3 1 -3 1 0 0 Z " fill="#3F5744" transform="translate(177,130)"/>
<path d="M0 0 C-1.4638611 4.39158329 -3.97831338 4.87947433 -8 7 C-7.08529012 1.6946827 -5.46561428 0 0 0 Z " fill="#2BB12A" transform="translate(599,653)"/>
<path d="M0 0 C0 0.66 0 1.32 0 2 C-8.261959 6.59225513 -8.261959 6.59225513 -13 6 C-9.33653596 2.33653596 -5.24453716 0 0 0 Z " fill="#089D20" transform="translate(699,486)"/>
<path d="M0 0 C0.33 0 0.66 0 1 0 C0.67 2.64 0.34 5.28 0 8 C-0.99 8.33 -1.98 8.66 -3 9 C-3 9.99 -3 10.98 -3 12 C-3.66 12 -4.32 12 -5 12 C-3.68938409 7.76570244 -2.05643741 3.92592596 0 0 Z " fill="#3F5441" transform="translate(561,463)"/>
<path d="M0 0 C1.43931117 0.45261358 2.87638999 0.91232979 4.3125 1.375 C5.11300781 1.63023438 5.91351562 1.88546875 6.73828125 2.1484375 C9 3 9 3 12 5 C10.3739713 4.93999894 8.74898451 4.8512115 7.125 4.75 C5.76761719 4.68039063 5.76761719 4.68039063 4.3828125 4.609375 C2 4 2 4 0.6796875 1.953125 C0.45539063 1.30859375 0.23109375 0.6640625 0 0 Z " fill="#3E8050" transform="translate(507,90)"/>
<path d="M0 0 C2.51699845 2.51699845 3.10964078 4.57554146 4 8 C3.625 10.375 3.625 10.375 3 12 C3 11.34 3 10.68 3 10 C2.34 10 1.68 10 1 10 C-0.1577506 6.52674819 -0.06866652 3.63932552 0 0 Z " fill="#337243" transform="translate(705,311)"/>
<path d="M0 0 C4.28477792 2.30718811 7.72291137 4.32966073 11 8 C8.03 7.01 5.06 6.02 2 5 C2 4.34 2 3.68 2 3 C1.34 3 0.68 3 0 3 C0 2.01 0 1.02 0 0 Z " fill="#4D9362" transform="translate(571,122)"/>
<path d="M0 0 C2.95183101 2.95183101 3.08663988 5.95511947 4 10 C3.01 10 2.02 10 1 10 C-0.1577506 6.52674819 -0.06866652 3.63932552 0 0 Z " fill="#115A26" transform="translate(707,321)"/>
<path d="M0 0 C2.61724095 2.36797991 4.32861729 4.89600354 6 8 C6 8.66 6 9.32 6 10 C3 9 3 9 1.3125 6.6875 C0 4 0 4 0 0 Z " fill="#4F8564" transform="translate(668,224)"/>
<path d="M0 0 C2.97 0 5.94 0 9 0 C9.33 0.66 9.66 1.32 10 2 C10.99 2.66 11.98 3.32 13 4 C8.428721 3.45144652 4.32564205 2.58255197 0 1 C0 0.67 0 0.34 0 0 Z " fill="#1A622D" transform="translate(480,83)"/>
<path d="M0 0 C1.9375 0.625 1.9375 0.625 4 2 C4.75 5.125 4.75 5.125 5 8 C4.01 8 3.02 8 2 8 C1.34 5.36 0.68 2.72 0 0 Z " fill="#246D39" transform="translate(692,277)"/>
<path d="M0 0 C1.9375 0.5 1.9375 0.5 4 2 C4.68790422 4.69658452 4.81946464 7.2017019 5 10 C2.35534962 6.8745041 1.15585285 3.91211733 0 0 Z " fill="#32B946" transform="translate(68,526)"/>
<path d="M0 0 C0.33 0 0.66 0 1 0 C1 3.63 1 7.26 1 11 C0.01 11.33 -0.98 11.66 -2 12 C-1.33333333 8 -0.66666667 4 0 0 Z " fill="#357347" transform="translate(53,319)"/>
<path d="M0 0 C0.99 0 1.98 0 3 0 C1.55746343 3.36591866 -0.33264727 5.51047079 -3 8 C-3 6.68 -3 5.36 -3 4 C-2.34 4 -1.68 4 -1 4 C-0.67 2.68 -0.34 1.36 0 0 Z " fill="#27571F" transform="translate(231,259)"/>
<path d="M0 0 C2.31 0.33 4.62 0.66 7 1 C7.33 2.32 7.66 3.64 8 5 C4.62496331 3.8141763 2.35277269 2.72426311 0 0 Z " fill="#2A7740" transform="translate(563,120)"/>
<path d="M0 0 C-0.33 0.99 -0.66 1.98 -1 3 C-5.09724467 4.54613006 -7.81857651 5.29227216 -12 4 C-10.3767313 3.3291288 -8.75132422 2.66342971 -7.125 2 C-6.22007812 1.62875 -5.31515625 1.2575 -4.3828125 0.875 C-2 0 -2 0 0 0 Z " fill="#457C55" transform="translate(263,83)"/>
<path d="M0 0 C0.66 0.33 1.32 0.66 2 1 C0.95125002 3.62187494 0.35068687 4.79371361 -2.125 6.25 C-2.74375 6.4975 -3.3625 6.745 -4 7 C-3.43628586 3.73045798 -2.50037734 2.17424117 0 0 Z " fill="#2CB12B" transform="translate(587,659)"/>
<path d="M0 0 C0.33 0 0.66 0 1 0 C1.41176754 3.60296594 1.1535853 4.78402067 -1 7.8125 C-1.66 8.534375 -2.32 9.25625 -3 10 C-3.66 9.67 -4.32 9.34 -5 9 C-3.35 6.03 -1.7 3.06 0 0 Z " fill="#273C2F" transform="translate(536,513)"/>
<path d="M0 0 C0.99 0 1.98 0 3 0 C3.33 1.32 3.66 2.64 4 4 C4.66 4 5.32 4 6 4 C6 5.65 6 7.3 6 9 C3.59927045 6.11912454 1.52708963 3.43595166 0 0 Z " fill="#3B6545" transform="translate(541,277)"/>
<path d="M0 0 C0.33 0 0.66 0 1 0 C1 2.31 1 4.62 1 7 C-0.98 7.99 -0.98 7.99 -3 9 C-2.01 6.03 -1.02 3.06 0 0 Z " fill="#3A7C49" transform="translate(72,264)"/>
<path d="M0 0 C-1.4562545 0.67119549 -2.91507867 1.33681807 -4.375 2 C-5.59316406 2.556875 -5.59316406 2.556875 -6.8359375 3.125 C-9 4 -9 4 -11 4 C-11 3.34 -11 2.68 -11 2 C-9.73392393 1.46770674 -8.46189588 0.94955456 -7.1875 0.4375 C-6.47980469 0.14746094 -5.77210938 -0.14257812 -5.04296875 -0.44140625 C-3 -1 -3 -1 0 0 Z " fill="#3D5C2A" transform="translate(295,213)"/>
<path d="M0 0 C0.33 0 0.66 0 1 0 C1.20086443 3.71599191 1.1519437 4.77208445 -1 8 C-1.99 8 -2.98 8 -4 8 C-2.87548273 5.0280615 -1.77706209 2.66559313 0 0 Z " fill="#4D8654" transform="translate(108,200)"/>
<path d="M0 0 C0.66 0 1.32 0 2 0 C0.375 6.75 0.375 6.75 -3 9 C-2.01 6.03 -1.02 3.06 0 0 Z " fill="#2D743C" transform="translate(709,473)"/>
<path d="M0 0 C-2.31 1.65 -4.62 3.3 -7 5 C-7 3.68 -7 2.36 -7 1 C-3.375 -1.125 -3.375 -1.125 0 0 Z " fill="#385926" transform="translate(263,232)"/>
<path d="M0 0 C0.66 0.99 1.32 1.98 2 3 C1.01 3.33 0.02 3.66 -1 4 C-1 4.66 -1 5.32 -1 6 C-2.32 5.67 -3.64 5.34 -5 5 C-3.35 3.35 -1.7 1.7 0 0 Z " fill="#475847" transform="translate(143,158)"/>
<path d="M0 0 C0.33 0 0.66 0 1 0 C1 1.98 1 3.96 1 6 C-0.98 6.99 -0.98 6.99 -3 8 C-1.125 2.25 -1.125 2.25 0 0 Z " fill="#314432" transform="translate(547,491)"/>
<path d="M0 0 C0 0.99 0 1.98 0 3 C-2.5 5.1875 -2.5 5.1875 -5 7 C-5.33 6.01 -5.66 5.02 -6 4 C-4.02 2.68 -2.04 1.36 0 0 Z " fill="#15A424" transform="translate(705,481)"/>
<path d="M0 0 C1.27875 -0.061875 2.5575 -0.12375 3.875 -0.1875 C4.95394531 -0.23970703 4.95394531 -0.23970703 6.0546875 -0.29296875 C6.69664062 -0.19628906 7.33859375 -0.09960938 8 0 C8.66 0.99 9.32 1.98 10 3 C6.28111761 2.49287967 3.26545761 1.88391785 0 0 Z " fill="#136328" transform="translate(454,76)"/>
</svg>
